M48
INCH
T17C0.038
T16C0.042
T15C0.028
T14C0.026
T13C0.031
T12C0.064
T11C0.039
%
T14
G05
X023331Y081000
X025300Y081000
X030800Y077484
X030800Y075516
X032600Y075516
X032600Y077484
T15
X025516Y074200
X026500Y074200
T13
X026700Y083800
X026100Y077800
T17
X017200Y073100
X018200Y073100
X017200Y072100
X018200Y072100
X017200Y071100
X018200Y071100
X017200Y070100
X018200Y070100
X017200Y069100
X017200Y068100
X017200Y067100
X017200Y066100
X017200Y065100
X017200Y064100
X017200Y063100
X017200Y062100
X017200Y061100
X017200Y060100
X017200Y059100
X018200Y069100
X018200Y068100
X018200Y067100
X018200Y066100
X018200Y065100
X018200Y064100
X018200Y063100
X018200Y062100
X018200Y061100
X018200Y060100
X018200Y059100
T11
X024100Y090800
X024400Y093900
X023498Y093900
X025302Y093900
X028300Y093900
X027398Y093900
X029202Y093900
X025300Y083800
X032200Y093900
X031298Y093900
X033102Y093900
X035198Y093900
X031900Y091800
X036100Y093900
X035000Y090300
X031900Y087800
X037002Y093900
X023330Y079000
X025300Y079000
X030800Y086200
X031100Y081800
T16
X015900Y088100
X015900Y087100
X015900Y079550
X015900Y086100
X015900Y085100
X015900Y084100
X015900Y078550
X015900Y077550
X015900Y083100
T12
X026800Y090900
X028769Y090900
X033900Y087800
X035869Y087800
M30
