G04 start of page 2 for group 2 layer_idx 10 *
G04 Title: (unknown), top_mask *
G04 Creator: pcb-rnd 2.3.2 *
G04 CreationDate: 2021-07-12 19:07:33 UTC *
G04 For:  *
G04 Format: Gerber/RS-274X *
G04 PCB-Dimensions: 1000000 1000000 *
G04 PCB-Coordinate-Origin: lower left *
%MOIN*%
%FSLAX25Y25*%
%LNTOP_MASK_NONE_2*%
%ADD93C,0.0660*%
%ADD92C,0.0760*%
%ADD91C,0.0630*%
%ADD90C,0.0860*%
%ADD89C,0.1090*%
%ADD88C,0.0001*%
G54D88*G36*
X262500Y914500D02*Y903500D01*
X273500D01*
Y914500D01*
X262500D01*
G37*
G36*
X243403Y883889D02*X237685D01*
Y877385D01*
X243403D01*
Y883889D01*
G37*
G36*
X255960Y889764D02*Y884046D01*
X264040D01*
Y889764D01*
X255960D01*
G37*
G36*
X262000Y857000D02*X271500D01*
Y854000D01*
X262000D01*
Y857000D01*
G37*
G36*
X251749Y865582D02*Y859864D01*
X258253D01*
Y865582D01*
X251749D01*
G37*
G36*
X237749Y865953D02*Y860235D01*
X244253D01*
Y865953D01*
X237749D01*
G37*
G36*
Y873039D02*Y867321D01*
X244253D01*
Y873039D01*
X237749D01*
G37*
G36*
X255960Y877954D02*Y872236D01*
X264040D01*
Y877954D01*
X255960D01*
G37*
G36*
X293954Y878040D02*X288236D01*
Y869960D01*
X293954D01*
Y878040D01*
G37*
G36*
X257253Y934763D02*Y943237D01*
X248779D01*
Y934763D01*
X257253D01*
G37*
G36*
X296253D02*Y943237D01*
X287779D01*
Y934763D01*
X296253D01*
G37*
G36*
X262000Y852000D02*X271500D01*
Y849000D01*
X262000D01*
Y852000D01*
G37*
G36*
Y847000D02*X271500D01*
Y844000D01*
X262000D01*
Y847000D01*
G37*
G36*
X243402Y849252D02*X237684D01*
Y842748D01*
X243402D01*
Y849252D01*
G37*
G36*
X251749Y858496D02*Y852778D01*
X258253D01*
Y858496D01*
X251749D01*
G37*
G54D89*X287685Y909000D03*
G54D88*G36*
X262000Y862000D02*X271500D01*
Y859000D01*
X262000D01*
Y862000D01*
G37*
G36*
X292000Y854000D02*X282500D01*
Y857000D01*
X292000D01*
Y854000D01*
G37*
G36*
X273960Y877954D02*Y872236D01*
X282040D01*
Y877954D01*
X273960D01*
G37*
G36*
Y889764D02*Y884046D01*
X282040D01*
Y889764D01*
X273960D01*
G37*
G36*
X292000Y849000D02*X282500D01*
Y852000D01*
X292000D01*
Y849000D01*
G37*
G36*
Y844000D02*X282500D01*
Y847000D01*
X292000D01*
Y844000D01*
G37*
G36*
X335253Y934763D02*Y943237D01*
X326779D01*
Y934763D01*
X335253D01*
G37*
G36*
X292000Y859000D02*X282500D01*
Y862000D01*
X292000D01*
Y859000D01*
G37*
G54D90*X319000Y918000D03*
G54D88*G36*
X305764Y878040D02*X300046D01*
Y869960D01*
X305764D01*
Y878040D01*
G37*
G36*
X361954Y898040D02*X356236D01*
Y889960D01*
X361954D01*
Y898040D01*
G37*
G36*
Y916040D02*X356236D01*
Y907960D01*
X361954D01*
Y916040D01*
G37*
G36*
X333500Y883500D02*Y872500D01*
X344500D01*
Y883500D01*
X333500D01*
G37*
G54D89*X358685Y878000D03*
G54D88*G36*
X314700Y873700D02*Y882300D01*
X323300D01*
Y873700D01*
X314700D01*
G37*
G36*
X374253Y934763D02*Y943237D01*
X365779D01*
Y934763D01*
X374253D01*
G37*
G36*
X373764Y898040D02*X368046D01*
Y889960D01*
X373764D01*
Y898040D01*
G37*
G36*
Y916040D02*X368046D01*
Y907960D01*
X373764D01*
Y916040D01*
G37*
G36*
X236317Y883889D02*X230599D01*
Y877385D01*
X236317D01*
Y883889D01*
G37*
G36*
X236316Y849252D02*X230598D01*
Y842748D01*
X236316D01*
Y849252D01*
G37*
G36*
X230161Y813154D02*Y806846D01*
X236469D01*
Y813154D01*
X230161D01*
G37*
G54D91*X253000Y810000D03*
G54D88*G36*
X229000Y794300D02*X237600D01*
Y785700D01*
X229000D01*
Y794300D01*
G37*
G54D90*X253000Y790000D03*
G54D88*G36*
X296000Y798000D02*X286500D01*
Y801000D01*
X296000D01*
Y798000D01*
G37*
G36*
X294954Y815040D02*X289236D01*
Y806960D01*
X294954D01*
Y815040D01*
G37*
G36*
X304748Y801402D02*Y795684D01*
X311252D01*
Y801402D01*
X304748D01*
G37*
G36*
X266000Y801000D02*X275500D01*
Y798000D01*
X266000D01*
Y801000D01*
G37*
G36*
X306764Y815040D02*X301046D01*
Y806960D01*
X306764D01*
Y815040D01*
G37*
G36*
X266000Y796000D02*X275500D01*
Y793000D01*
X266000D01*
Y796000D01*
G37*
G36*
X296000Y793000D02*X286500D01*
Y796000D01*
X296000D01*
Y793000D01*
G37*
G36*
X304748Y794316D02*Y788598D01*
X311252D01*
Y794316D01*
X304748D01*
G37*
G36*
X320748D02*Y788598D01*
X327252D01*
Y794316D01*
X320748D01*
G37*
G36*
Y801402D02*Y795684D01*
X327252D01*
Y801402D01*
X320748D01*
G37*
G36*
X266000Y791000D02*X275500D01*
Y788000D01*
X266000D01*
Y791000D01*
G37*
G36*
Y786000D02*X275500D01*
Y783000D01*
X266000D01*
Y786000D01*
G37*
G36*
X250857Y746300D02*X259457D01*
Y737700D01*
X250857D01*
Y746300D01*
G37*
G54D90*X265000Y742000D03*
G54D88*G36*
X296000Y788000D02*X286500D01*
Y791000D01*
X296000D01*
Y788000D01*
G37*
G36*
Y783000D02*X286500D01*
Y786000D01*
X296000D01*
Y783000D01*
G37*
G54D91*X308000Y774843D03*
G54D88*G36*
X338748Y764316D02*Y758598D01*
X345252D01*
Y764316D01*
X338748D01*
G37*
G36*
Y771402D02*Y765684D01*
X345252D01*
Y771402D01*
X338748D01*
G37*
G36*
X304846Y752003D02*X311154D01*
Y758312D01*
X304846D01*
Y752003D01*
G37*
G36*
X322846D02*X329154D01*
Y758312D01*
X322846D01*
Y752003D01*
G37*
G54D91*X326000Y774843D03*
G54D88*G36*
X280316Y758252D02*X274598D01*
Y751748D01*
X280316D01*
Y758252D01*
G37*
G36*
X287402D02*X281684D01*
Y751748D01*
X287402D01*
Y758252D01*
G37*
G36*
X280316Y773252D02*X274598D01*
Y766748D01*
X280316D01*
Y773252D01*
G37*
G36*
X287402D02*X281684D01*
Y766748D01*
X287402D01*
Y773252D01*
G37*
G36*
X133500Y890300D02*Y899300D01*
X97500D01*
Y890300D01*
X133500D01*
G37*
G36*
Y874700D02*Y883700D01*
X97500D01*
Y874700D01*
X133500D01*
G37*
G36*
X162300Y884300D02*Y877700D01*
X155700D01*
Y884300D01*
X162300D01*
G37*
G54D92*X159000Y871000D03*
G54D88*G36*
X133500Y859100D02*Y868100D01*
X97500D01*
Y859100D01*
X133500D01*
G37*
G36*
X162300Y798800D02*Y792200D01*
X155700D01*
Y798800D01*
X162300D01*
G37*
G54D92*X159000Y861000D03*
Y851000D03*
Y841000D03*
G54D88*G36*
X175300Y734300D02*Y727700D01*
X168700D01*
Y734300D01*
X175300D01*
G37*
G54D92*X159000Y785500D03*
Y775500D03*
G54D90*Y831000D03*
G54D93*X182000Y731000D03*
X172000Y721000D03*
X182000D03*
X172000Y711000D03*
X182000D03*
X172000Y701000D03*
X182000D03*
X172000Y691000D03*
Y681000D03*
Y671000D03*
Y661000D03*
Y651000D03*
Y641000D03*
Y631000D03*
Y621000D03*
Y611000D03*
Y601000D03*
Y591000D03*
X182000Y691000D03*
Y681000D03*
Y671000D03*
Y661000D03*
Y651000D03*
Y641000D03*
Y631000D03*
Y621000D03*
Y611000D03*
Y601000D03*
Y591000D03*
G54D88*G36*
X133500Y843500D02*Y852500D01*
X97500D01*
Y843500D01*
X133500D01*
G37*
G36*
Y827900D02*Y836900D01*
X97500D01*
Y827900D01*
X133500D01*
G37*
G36*
Y812300D02*Y821300D01*
X97500D01*
Y812300D01*
X133500D01*
G37*
G36*
Y796700D02*Y805700D01*
X97500D01*
Y796700D01*
X133500D01*
G37*
G36*
Y781100D02*Y790100D01*
X97500D01*
Y781100D01*
X133500D01*
G37*
G36*
Y765500D02*Y774500D01*
X97500D01*
Y765500D01*
X133500D01*
G37*
G36*
Y749900D02*Y758900D01*
X97500D01*
Y749900D01*
X133500D01*
G37*
G36*
Y734300D02*Y743300D01*
X97500D01*
Y734300D01*
X133500D01*
G37*
G36*
Y718700D02*Y727700D01*
X97500D01*
Y718700D01*
X133500D01*
G37*
G36*
Y703100D02*Y712100D01*
X97500D01*
Y703100D01*
X133500D01*
G37*
G36*
Y687500D02*Y696500D01*
X97500D01*
Y687500D01*
X133500D01*
G37*
G36*
Y671900D02*Y680900D01*
X97500D01*
Y671900D01*
X133500D01*
G37*
G36*
Y656300D02*Y665300D01*
X97500D01*
Y656300D01*
X133500D01*
G37*
G36*
Y640700D02*Y649700D01*
X97500D01*
Y640700D01*
X133500D01*
G37*
G36*
Y625100D02*Y634100D01*
X97500D01*
Y625100D01*
X133500D01*
G37*
G36*
Y609500D02*Y618500D01*
X97500D01*
Y609500D01*
X133500D01*
G37*
G36*
Y593900D02*Y602900D01*
X97500D01*
Y593900D01*
X133500D01*
G37*
G36*
Y578300D02*Y587300D01*
X97500D01*
Y578300D01*
X133500D01*
G37*
G36*
Y562700D02*Y571700D01*
X97500D01*
Y562700D01*
X133500D01*
G37*
M02*
