G04 start of page 2 for group 1 layer_idx 8 *
G04 Title: (unknown), top_silk *
G04 Creator: pcb-rnd 2.3.2 *
G04 CreationDate: 2021-07-12 19:07:32 UTC *
G04 For:  *
G04 Format: Gerber/RS-274X *
G04 PCB-Dimensions: 1000000 1000000 *
G04 PCB-Coordinate-Origin: lower left *
%MOIN*%
%FSLAX25Y25*%
%LNTOP_SILK_NONE_1*%
%ADD85C,0.0070*%
%ADD84C,0.0200*%
%ADD83C,0.0394*%
%ADD82C,0.0080*%
%ADD81C,0.0150*%
%ADD80C,0.0400*%
%ADD79C,0.0100*%
G54D79*X167000Y736000D02*Y586000D01*
X187000Y736000D02*X167000D01*
X177000Y726000D02*X167000D01*
X177000Y736000D02*Y726000D01*
X182000Y795500D02*X201700D01*
X182000Y789000D02*Y792000D01*
G54D80*X186400Y785500D02*X184200D01*
X177400D02*X175200D01*
G54D79*X182000Y770500D02*X169500D01*
X182000Y779000D02*Y782000D01*
G54D80*X177400Y775500D02*X175200D01*
X195400Y785500D02*X193200D01*
G54D79*X182000Y770500D02*Y775500D01*
G54D80*X195400D02*X193200D01*
X186400D02*X184200D01*
G54D79*X187000Y586000D02*X167000D01*
X187000Y736000D02*Y586000D01*
X201700Y775500D02*X182000D01*
X169500Y800500D02*Y770500D01*
X201700Y795500D02*Y775500D01*
X169500Y886000D02*X182000D01*
Y881000D01*
G54D80*X177400D02*X175200D01*
G54D79*X182000Y854500D02*Y857500D01*
G54D80*X177400Y861000D02*X175200D01*
X177400Y871000D02*X175200D01*
G54D79*X182000Y864500D02*Y867500D01*
X169500Y886000D02*Y826000D01*
X182000Y874500D02*Y877500D01*
G54D80*X177400Y851000D02*X175200D01*
G54D79*X182000Y834500D02*Y837500D01*
Y844500D02*Y847500D01*
G54D80*X177400Y831000D02*X175200D01*
X177400Y841000D02*X175200D01*
X167500Y881000D02*X159000D01*
X167500Y871000D02*X159000D01*
X167500Y861000D02*X159000D01*
X167500Y851000D02*X159000D01*
X167500Y841000D02*X159000D01*
X167500Y831000D02*X159000D01*
G54D79*X169500Y800500D02*X182000D01*
Y826000D02*X169500D01*
X182000D02*Y831000D01*
Y881000D02*X201700D01*
G54D80*X186400Y871000D02*X184200D01*
X186400Y861000D02*X184200D01*
G54D79*X201700Y867500D02*Y881000D01*
G54D80*X195400Y871000D02*X193200D01*
X195400Y861000D02*X193200D01*
G54D79*X201700Y867500D02*X182000D01*
Y864500D02*X201700D01*
Y831000D01*
G54D80*X195400Y851000D02*X193200D01*
X195400Y841000D02*X193200D01*
X186400Y831000D02*X184200D01*
X186400Y881000D02*X184200D01*
G54D81*X203400Y882250D02*X182300D01*
G54D80*X186400Y841000D02*X184200D01*
X186400Y851000D02*X184200D01*
G54D79*X182000Y800500D02*Y795500D01*
G54D81*X203400Y796750D02*X182300D01*
G54D79*X201700Y831000D02*X182000D01*
G54D81*X203700Y829750D02*X182300D01*
G54D80*X195400Y831000D02*X193200D01*
X203200D02*X206400D01*
G54D79*X228984Y805079D02*Y814921D01*
X257331D01*
X237843Y810000D02*X242173D01*
Y812362D02*Y807638D01*
X257331Y814921D02*Y805079D01*
X228984D01*
X244142Y810000D02*X248472D01*
X244142Y812362D02*Y807638D01*
X233300Y790000D02*X238225D01*
X248075D02*X253000D01*
X238225Y791642D02*Y788358D01*
Y791642D02*X248075D01*
Y788358D02*X238225D01*
X248075D02*Y791642D01*
X265000Y802000D02*Y782000D01*
G54D82*X280607Y772755D02*X281393D01*
X280607Y767245D02*X281393D01*
G54D79*X241677Y742000D02*X245677D01*
G54D83*X256978Y747906D02*X251478D01*
X256978Y749874D02*X253234D01*
X256978Y751843D02*X256618D01*
G54D82*X280607Y757755D02*X281393D01*
X280607Y752245D02*X281393D01*
G54D79*X274480Y742000D02*X278480D01*
X243677Y744000D02*Y740000D01*
G54D83*X256978Y736094D02*X251478D01*
X256978Y734126D02*X253234D01*
X256978Y732157D02*X256618D01*
G54D79*X297000Y782000D02*X265000D01*
G54D82*X295638Y814740D02*X300362D01*
X295638Y807260D02*X300362D01*
X305245Y794607D02*Y795393D01*
G54D79*X297000Y782000D02*Y802000D01*
G54D82*X310755Y794607D02*Y795393D01*
X321245Y794607D02*Y795393D01*
X326755Y794607D02*Y795393D01*
X339245Y764607D02*Y765393D01*
X344755Y764607D02*Y765393D01*
G54D79*X303079Y750827D02*Y779173D01*
X305638Y764016D02*X310362D01*
X308000Y765984D02*Y770315D01*
X312921Y779173D02*Y750827D01*
X303079D01*
X308000Y759685D02*Y764016D01*
X305638Y765984D02*X310362D01*
X321079Y750827D02*Y779173D01*
X330921D02*Y750827D01*
X321079D01*
X326000Y759685D02*Y764016D01*
X323638D02*X328362D01*
X326000Y765984D02*Y770315D01*
X323638Y765984D02*X328362D01*
X303079Y779173D02*X312921D01*
X321079D02*X330921D01*
X265000Y802000D02*X278500D01*
X283500D02*X297000D01*
G54D80*X195400Y881000D02*X193200D01*
X203200Y871000D02*X206400D01*
X203200Y881000D02*X206400D01*
G54D82*X236608Y883392D02*X237394D01*
X236608Y877882D02*X237394D01*
X238246Y866244D02*Y867030D01*
G54D84*X275874Y909000D02*X279811D01*
G54D82*X243756Y866244D02*Y867030D01*
X256260Y878638D02*Y883362D01*
X263740Y878638D02*Y883362D01*
X274260Y878638D02*Y883362D01*
X281740Y878638D02*Y883362D01*
G54D79*X319000Y878000D02*Y888000D01*
X322333Y908000D02*Y888000D01*
X319000Y908000D02*Y918000D01*
X322333Y908000D02*X315667D01*
G54D82*X362638Y915740D02*X367362D01*
X362638Y908260D02*X367362D01*
G54D79*X315667Y888000D02*X322333D01*
G54D84*X346874Y878000D02*X350811D01*
G54D82*X294638Y877740D02*X299362D01*
X294638Y870260D02*X299362D01*
X362638Y897740D02*X367362D01*
X362638Y890260D02*X367362D01*
G54D79*X315667Y888000D02*Y908000D01*
X228646Y943193D02*X259354D01*
X267646D02*X298354D01*
X306646D02*X337354D01*
X345646D02*X376354D01*
X228646Y931776D02*Y943193D01*
X259354Y931776D02*X228646D01*
X237701D02*Y933744D01*
X250299D02*Y931776D01*
X298354D02*X267646D01*
X276701D02*Y933744D01*
X289299D02*Y931776D01*
X337354D02*X306646D01*
X315701D02*Y933744D01*
X328299D02*Y931776D01*
X376354D02*X345646D01*
X354701D02*Y933744D01*
X367299D02*Y931776D01*
X259354Y943193D02*Y931776D01*
X267646D02*Y943193D01*
X298354D02*Y931776D01*
X306646D02*Y943193D01*
X337354D02*Y931776D01*
X345646D02*Y943193D01*
X376354D02*Y931776D01*
G54D80*X203200Y861000D02*X206400D01*
X203200Y851000D02*X206400D01*
X203200Y841000D02*X206400D01*
G54D79*X261000Y863000D02*Y843000D01*
X293000D02*X261000D01*
G54D82*X236607Y848755D02*X237393D01*
X236607Y843245D02*X237393D01*
G54D79*X293000Y843000D02*Y863000D01*
X261000D02*X274500D01*
X279500D02*X293000D01*
G54D82*X252246Y858787D02*Y859573D01*
X257756Y858787D02*Y859573D01*
G54D80*X195400Y795500D02*X193200D01*
X203200Y785500D02*X206400D01*
X203200Y795500D02*X206400D01*
X203200Y775500D02*X206400D01*
G54D81*X203700Y774250D02*X182300D01*
G54D80*X186400Y795500D02*X184200D01*
X177400D02*X175200D01*
X167500D02*X159000D01*
X167500Y785500D02*X159000D01*
X167500Y775500D02*X159000D01*
G54D79*X258157Y909000D02*G75*G03X277843Y909000I9843J0D01*G01*
G75*G03X258157Y909000I-9843J0D01*G01*
X274500Y863000D02*G75*G03X279500Y863000I2500J0D01*G01*
X278500Y802000D02*G75*G03X283500Y802000I2500J0D01*G01*
X329157Y878000D02*G75*G03X348843Y878000I9843J0D01*G01*
G75*G03X329157Y878000I-9843J0D01*G01*
X247677Y742000D02*G75*G03X272480Y742000I12402J0D01*G01*
G75*G03X247677Y742000I-12402J0D01*G01*
G54D85*X149500Y557000D02*X151000D01*
X149000Y556500D02*X149500Y557000D01*
X149000Y556500D02*Y555500D01*
X149500Y555000D01*
X151000D01*
X152200Y556500D02*Y555500D01*
Y556500D02*X152700Y557000D01*
X153700D01*
X154200Y556500D01*
Y555500D01*
X153700Y555000D02*X154200Y555500D01*
X152700Y555000D02*X153700D01*
X152200Y555500D02*X152700Y555000D01*
X157400Y559000D02*Y555000D01*
X156900D02*X157400Y555500D01*
X155900Y555000D02*X156900D01*
X155400Y555500D02*X155900Y555000D01*
X155400Y556500D02*Y555500D01*
Y556500D02*X155900Y557000D01*
X156900D01*
X157400Y556500D01*
X159100Y555000D02*X160600D01*
X158600Y555500D02*X159100Y555000D01*
X158600Y556500D02*Y555500D01*
Y556500D02*X159100Y557000D01*
X160100D01*
X160600Y556500D01*
X158600Y556000D02*X160600D01*
Y556500D01*
X162300Y555000D02*X163800D01*
X164300Y555500D01*
X163800Y556000D02*X164300Y555500D01*
X162300Y556000D02*X163800D01*
X161800Y556500D02*X162300Y556000D01*
X161800Y556500D02*X162300Y557000D01*
X163800D01*
X164300Y556500D01*
X161800Y555500D02*X162300Y555000D01*
X168800Y557000D02*X169300Y556500D01*
X167800Y557000D02*X168800D01*
X167300Y556500D02*X167800Y557000D01*
X167300Y556500D02*Y555500D01*
X167800Y555000D01*
X168800D01*
X169300Y555500D01*
X167300Y554000D02*X167800Y553500D01*
X168800D01*
X169300Y554000D01*
Y557000D02*Y554000D01*
X171000Y556500D02*Y555000D01*
Y556500D02*X171500Y557000D01*
X172500D01*
X170500D02*X171000Y556500D01*
X174200Y555000D02*X175700D01*
X173700Y555500D02*X174200Y555000D01*
X173700Y556500D02*Y555500D01*
Y556500D02*X174200Y557000D01*
X175200D01*
X175700Y556500D01*
X173700Y556000D02*X175700D01*
Y556500D01*
X177400Y555000D02*X178900D01*
X176900Y555500D02*X177400Y555000D01*
X176900Y556500D02*Y555500D01*
Y556500D02*X177400Y557000D01*
X178400D01*
X178900Y556500D01*
X176900Y556000D02*X178900D01*
Y556500D01*
X180600D02*Y555000D01*
Y556500D02*X181100Y557000D01*
X181600D01*
X182100Y556500D01*
Y555000D01*
X180100Y557000D02*X180600Y556500D01*
X186600Y557000D02*X187100Y556500D01*
X185600Y557000D02*X186600D01*
X185100Y556500D02*X185600Y557000D01*
X185100Y556500D02*Y555500D01*
X185600Y555000D01*
X187100Y557000D02*Y555500D01*
X187600Y555000D01*
X185600D02*X186600D01*
X187100Y555500D01*
X189300Y556500D02*Y555000D01*
Y556500D02*X189800Y557000D01*
X190300D01*
X190800Y556500D01*
Y555000D01*
X188800Y557000D02*X189300Y556500D01*
X194000Y559000D02*Y555000D01*
X193500D02*X194000Y555500D01*
X192500Y555000D02*X193500D01*
X192000Y555500D02*X192500Y555000D01*
X192000Y556500D02*Y555500D01*
Y556500D02*X192500Y557000D01*
X193500D01*
X194000Y556500D01*
X149000Y565500D02*X151000D01*
X150000D02*Y561500D01*
X152200Y565500D02*Y561500D01*
Y563000D02*X152700Y563500D01*
X153700D01*
X154200Y563000D01*
Y561500D01*
X155900D02*X157400D01*
X155400Y562000D02*X155900Y561500D01*
X155400Y563000D02*Y562000D01*
Y563000D02*X155900Y563500D01*
X156900D01*
X157400Y563000D01*
X155400Y562500D02*X157400D01*
Y563000D01*
X160400Y564500D02*Y564400D01*
Y563000D02*Y561500D01*
X161900Y563000D02*Y561500D01*
Y563000D02*X162400Y563500D01*
X162900D01*
X163400Y563000D01*
Y561500D01*
X161400Y563500D02*X161900Y563000D01*
X164600Y563500D02*X165600Y561500D01*
X166600Y563500D02*X165600Y561500D01*
X168300D02*X169800D01*
X167800Y562000D02*X168300Y561500D01*
X167800Y563000D02*Y562000D01*
Y563000D02*X168300Y563500D01*
X169300D01*
X169800Y563000D01*
X167800Y562500D02*X169800D01*
Y563000D01*
X171500D02*Y561500D01*
Y563000D02*X172000Y563500D01*
X172500D01*
X173000Y563000D01*
Y561500D01*
X171000Y563500D02*X171500Y563000D01*
X174700Y565500D02*Y562000D01*
X175200Y561500D01*
X174200Y564000D02*X175200D01*
X176200Y563000D02*Y562000D01*
Y563000D02*X176700Y563500D01*
X177700D01*
X178200Y563000D01*
Y562000D01*
X177700Y561500D02*X178200Y562000D01*
X176700Y561500D02*X177700D01*
X176200Y562000D02*X176700Y561500D01*
X179900Y563000D02*Y561500D01*
Y563000D02*X180400Y563500D01*
X181400D01*
X179400D02*X179900Y563000D01*
X183100Y561500D02*X184600D01*
X185100Y562000D01*
X184600Y562500D02*X185100Y562000D01*
X183100Y562500D02*X184600D01*
X182600Y563000D02*X183100Y562500D01*
X182600Y563000D02*X183100Y563500D01*
X184600D01*
X185100Y563000D01*
X182600Y562000D02*X183100Y561500D01*
X188100Y563000D02*Y562000D01*
Y563000D02*X188600Y563500D01*
X189600D01*
X190100Y563000D01*
Y562000D01*
X189600Y561500D02*X190100Y562000D01*
X188600Y561500D02*X189600D01*
X188100Y562000D02*X188600Y561500D01*
X191800Y565000D02*Y561500D01*
Y565000D02*X192300Y565500D01*
X192800D01*
X191300Y563500D02*X192300D01*
X196100Y565500D02*Y562000D01*
X196600Y561500D01*
X195600Y564000D02*X196600D01*
X197600Y565500D02*Y561500D01*
Y563000D02*X198100Y563500D01*
X199100D01*
X199600Y563000D01*
Y561500D01*
X201300D02*X202800D01*
X200800Y562000D02*X201300Y561500D01*
X200800Y563000D02*Y562000D01*
Y563000D02*X201300Y563500D01*
X202300D01*
X202800Y563000D01*
X200800Y562500D02*X202800D01*
Y563000D01*
X192000Y593000D02*X192500Y592500D01*
X190500Y593000D02*X192000D01*
X190000Y592500D02*X190500Y593000D01*
X190000Y592500D02*Y589500D01*
X190500Y589000D01*
X192000D01*
X192500Y589500D01*
Y590500D02*Y589500D01*
X192000Y591000D02*X192500Y590500D01*
X191000Y591000D02*X192000D01*
X193700Y593000D02*Y589000D01*
Y593000D02*X196200Y589000D01*
Y593000D02*Y589000D01*
X197900Y593000D02*Y589000D01*
X199200Y593000D02*X199900Y592300D01*
Y589700D01*
X199200Y589000D02*X199900Y589700D01*
X197400Y589000D02*X199200D01*
X197400Y593000D02*X199200D01*
X201600D02*Y589000D01*
X202900Y593000D02*X203600Y592300D01*
Y589700D01*
X202900Y589000D02*X203600Y589700D01*
X201100Y589000D02*X202900D01*
X201100Y593000D02*X202900D01*
X192000Y603000D02*X192500Y602500D01*
X190500Y603000D02*X192000D01*
X190000Y602500D02*X190500Y603000D01*
X190000Y602500D02*Y601500D01*
X190500Y601000D01*
X192000D01*
X192500Y600500D01*
Y599500D01*
X192000Y599000D02*X192500Y599500D01*
X190500Y599000D02*X192000D01*
X190000Y599500D02*X190500Y599000D01*
X193700Y603000D02*X194700Y601000D01*
X195700Y603000D01*
X194700Y601000D02*Y599000D01*
X196900Y603000D02*Y599000D01*
Y603000D02*X199400Y599000D01*
Y603000D02*Y599000D01*
X201300D02*X202600D01*
X200600Y599700D02*X201300Y599000D01*
X200600Y602300D02*Y599700D01*
Y602300D02*X201300Y603000D01*
X202600D01*
X204300D02*Y599000D01*
X203800Y603000D02*X205800D01*
X206300Y602500D01*
Y601500D01*
X205800Y601000D02*X206300Y601500D01*
X204300Y601000D02*X205800D01*
X190000Y612500D02*Y609500D01*
Y612500D02*X190700Y613500D01*
X191800D01*
X192500Y612500D01*
Y609500D01*
X190000Y611500D02*X192500D01*
X193700Y610000D02*X194200Y609500D01*
X193700Y613000D02*Y610000D01*
Y613000D02*X194200Y613500D01*
X195200D01*
X195700Y613000D01*
Y610000D01*
X195200Y609500D02*X195700Y610000D01*
X194200Y609500D02*X195200D01*
X193700Y610500D02*X195700Y612500D01*
X149500Y532500D02*Y529000D01*
X150000Y528500D01*
X151000Y530000D02*Y529000D01*
Y530000D02*X151500Y530500D01*
X152500D01*
X153000Y530000D01*
Y529000D01*
X152500Y528500D02*X153000Y529000D01*
X151500Y528500D02*X152500D01*
X151000Y529000D02*X151500Y528500D01*
X154200Y530500D02*Y529000D01*
X154700Y528500D01*
X155200D01*
X155700Y529000D01*
Y530500D02*Y529000D01*
X156200Y528500D01*
X156700D01*
X157200Y529000D01*
Y530500D02*Y529000D01*
X158900Y528500D02*X160400D01*
X158400Y529000D02*X158900Y528500D01*
X158400Y530000D02*Y529000D01*
Y530000D02*X158900Y530500D01*
X159900D01*
X160400Y530000D01*
X158400Y529500D02*X160400D01*
Y530000D01*
X162100D02*Y528500D01*
Y530000D02*X162600Y530500D01*
X163600D01*
X161600D02*X162100Y530000D01*
X166600Y532500D02*Y529000D01*
X167100Y528500D01*
X168100Y531500D02*Y531400D01*
Y530000D02*Y528500D01*
X169600Y530000D02*Y528500D01*
Y530000D02*X170100Y530500D01*
X170600D01*
X171100Y530000D01*
Y528500D01*
Y530000D02*X171600Y530500D01*
X172100D01*
X172600Y530000D01*
Y528500D01*
X169100Y530500D02*X169600Y530000D01*
X173800Y531500D02*Y531400D01*
Y530000D02*Y528500D01*
X175300Y532500D02*Y529000D01*
X175800Y528500D01*
X174800Y531000D02*X175800D01*
X178600Y530000D02*Y529000D01*
Y530000D02*X179100Y530500D01*
X180100D01*
X180600Y530000D01*
Y529000D01*
X180100Y528500D02*X180600Y529000D01*
X179100Y528500D02*X180100D01*
X178600Y529000D02*X179100Y528500D01*
X182300Y532000D02*Y528500D01*
Y532000D02*X182800Y532500D01*
X183300D01*
X181800Y530500D02*X182800D01*
X149500Y552500D02*Y548500D01*
Y549000D02*X150000Y548500D01*
X151000D01*
X151500Y549000D01*
Y550000D02*Y549000D01*
X151000Y550500D02*X151500Y550000D01*
X150000Y550500D02*X151000D01*
X149500Y550000D02*X150000Y550500D01*
X153200Y550000D02*Y548500D01*
Y550000D02*X153700Y550500D01*
X154700D01*
X152700D02*X153200Y550000D01*
X155900D02*Y549000D01*
Y550000D02*X156400Y550500D01*
X157400D01*
X157900Y550000D01*
Y549000D01*
X157400Y548500D02*X157900Y549000D01*
X156400Y548500D02*X157400D01*
X155900Y549000D02*X156400Y548500D01*
X159100Y550500D02*Y549000D01*
X159600Y548500D01*
X160100D01*
X160600Y549000D01*
Y550500D02*Y549000D01*
X161100Y548500D01*
X161600D01*
X162100Y549000D01*
Y550500D02*Y549000D01*
X163800Y550000D02*Y548500D01*
Y550000D02*X164300Y550500D01*
X164800D01*
X165300Y550000D01*
Y548500D01*
X163300Y550500D02*X163800Y550000D01*
X169800Y550500D02*X170300Y550000D01*
X168800Y550500D02*X169800D01*
X168300Y550000D02*X168800Y550500D01*
X168300Y550000D02*Y549000D01*
X168800Y548500D01*
X170300Y550500D02*Y549000D01*
X170800Y548500D01*
X168800D02*X169800D01*
X170300Y549000D01*
X172500Y550000D02*Y548500D01*
Y550000D02*X173000Y550500D01*
X174000D01*
X172000D02*X172500Y550000D01*
X175700Y548500D02*X177200D01*
X175200Y549000D02*X175700Y548500D01*
X175200Y550000D02*Y549000D01*
Y550000D02*X175700Y550500D01*
X176700D01*
X177200Y550000D01*
X175200Y549500D02*X177200D01*
Y550000D01*
X181700Y550500D02*X182200Y550000D01*
X180700Y550500D02*X181700D01*
X180200Y550000D02*X180700Y550500D01*
X180200Y550000D02*Y549000D01*
X180700Y548500D01*
X181700D01*
X182200Y549000D01*
X180200Y547500D02*X180700Y547000D01*
X181700D01*
X182200Y547500D01*
Y550500D02*Y547500D01*
X183400Y550000D02*Y549000D01*
Y550000D02*X183900Y550500D01*
X184900D01*
X185400Y550000D01*
Y549000D01*
X184900Y548500D02*X185400Y549000D01*
X183900Y548500D02*X184900D01*
X183400Y549000D02*X183900Y548500D01*
X186600Y551500D02*Y551400D01*
Y550000D02*Y548500D01*
X188100Y550000D02*Y548500D01*
Y550000D02*X188600Y550500D01*
X189100D01*
X189600Y550000D01*
Y548500D01*
X187600Y550500D02*X188100Y550000D01*
X192300Y550500D02*X192800Y550000D01*
X191300Y550500D02*X192300D01*
X190800Y550000D02*X191300Y550500D01*
X190800Y550000D02*Y549000D01*
X191300Y548500D01*
X192300D01*
X192800Y549000D01*
X190800Y547500D02*X191300Y547000D01*
X192300D01*
X192800Y547500D01*
Y550500D02*Y547500D01*
X196300Y552500D02*Y549000D01*
X196800Y548500D01*
X195800Y551000D02*X196800D01*
X197800Y550000D02*Y549000D01*
Y550000D02*X198300Y550500D01*
X199300D01*
X199800Y550000D01*
Y549000D01*
X199300Y548500D02*X199800Y549000D01*
X198300Y548500D02*X199300D01*
X197800Y549000D02*X198300Y548500D01*
X190000Y622500D02*Y619500D01*
Y622500D02*X190700Y623500D01*
X191800D01*
X192500Y622500D01*
Y619500D01*
X190000Y621500D02*X192500D01*
X193700Y623000D02*X194200Y623500D01*
X195700D01*
X196200Y623000D01*
Y622000D01*
X193700Y619500D02*X196200Y622000D01*
X193700Y619500D02*X196200D01*
X149500Y543500D02*Y542000D01*
X150000Y541500D01*
X150500D01*
X151000Y542000D01*
Y543500D02*Y542000D01*
X151500Y541500D01*
X152000D01*
X152500Y542000D01*
Y543500D02*Y542000D01*
X153700Y544500D02*Y544400D01*
Y543000D02*Y541500D01*
X155200Y543000D02*Y541500D01*
Y543000D02*X155700Y543500D01*
X156200D01*
X156700Y543000D01*
Y541500D01*
X154700Y543500D02*X155200Y543000D01*
X161200Y543500D02*X161700Y543000D01*
X160200Y543500D02*X161200D01*
X159700Y543000D02*X160200Y543500D01*
X159700Y543000D02*Y542000D01*
X160200Y541500D01*
X161700Y543500D02*Y542000D01*
X162200Y541500D01*
X160200D02*X161200D01*
X161700Y542000D01*
X163900Y543000D02*Y541500D01*
Y543000D02*X164400Y543500D01*
X164900D01*
X165400Y543000D01*
Y541500D01*
X163400Y543500D02*X163900Y543000D01*
X168400Y545500D02*X169400D01*
X168900D02*Y541500D01*
X168400D02*X169400D01*
X172100Y543500D02*X172600Y543000D01*
X171100Y543500D02*X172100D01*
X170600Y543000D02*X171100Y543500D01*
X170600Y543000D02*Y542000D01*
X171100Y541500D01*
X172100D01*
X172600Y542000D01*
X170600Y540500D02*X171100Y540000D01*
X172100D01*
X172600Y540500D01*
Y543500D02*Y540500D01*
X174300Y543000D02*Y541500D01*
Y543000D02*X174800Y543500D01*
X175300D01*
X175800Y543000D01*
Y541500D01*
X173800Y543500D02*X174300Y543000D01*
X177000D02*Y542000D01*
Y543000D02*X177500Y543500D01*
X178500D01*
X179000Y543000D01*
Y542000D01*
X178500Y541500D02*X179000Y542000D01*
X177500Y541500D02*X178500D01*
X177000Y542000D02*X177500Y541500D01*
X180200Y545500D02*Y541500D01*
Y542000D02*X180700Y541500D01*
X181700D01*
X182200Y542000D01*
Y543000D02*Y542000D01*
X181700Y543500D02*X182200Y543000D01*
X180700Y543500D02*X181700D01*
X180200Y543000D02*X180700Y543500D01*
X183900Y541500D02*X185400D01*
X183400Y542000D02*X183900Y541500D01*
X183400Y543000D02*Y542000D01*
Y543000D02*X183900Y543500D01*
X184900D01*
X185400Y543000D01*
X183400Y542500D02*X185400D01*
Y543000D01*
X186600Y545500D02*Y542000D01*
X187100Y541500D01*
X189900Y543000D02*Y542000D01*
Y543000D02*X190400Y543500D01*
X191400D01*
X191900Y543000D01*
Y542000D01*
X191400Y541500D02*X191900Y542000D01*
X190400Y541500D02*X191400D01*
X189900Y542000D02*X190400Y541500D01*
X193600Y543000D02*Y541500D01*
Y543000D02*X194100Y543500D01*
X194600D01*
X195100Y543000D01*
Y541500D01*
X193100Y543500D02*X193600Y543000D01*
X196800Y541500D02*X198300D01*
X196300Y542000D02*X196800Y541500D01*
X196300Y543000D02*Y542000D01*
Y543000D02*X196800Y543500D01*
X197800D01*
X198300Y543000D01*
X196300Y542500D02*X198300D01*
Y543000D01*
X151500Y539000D02*Y535000D01*
X151000D02*X151500Y535500D01*
X150000Y535000D02*X151000D01*
X149500Y535500D02*X150000Y535000D01*
X149500Y536500D02*Y535500D01*
Y536500D02*X150000Y537000D01*
X151000D01*
X151500Y536500D01*
X154200Y537000D02*X154700Y536500D01*
X153200Y537000D02*X154200D01*
X152700Y536500D02*X153200Y537000D01*
X152700Y536500D02*Y535500D01*
X153200Y535000D01*
X154700Y537000D02*Y535500D01*
X155200Y535000D01*
X153200D02*X154200D01*
X154700Y535500D01*
X156400Y537000D02*Y535500D01*
X156900Y535000D01*
X158400Y537000D02*Y534000D01*
X157900Y533500D02*X158400Y534000D01*
X156900Y533500D02*X157900D01*
X156400Y534000D02*X156900Y533500D01*
Y535000D02*X157900D01*
X158400Y535500D01*
X161900Y538500D02*Y535000D01*
Y538500D02*X162400Y539000D01*
X162900D01*
X161400Y537000D02*X162400D01*
X163900Y536500D02*Y535500D01*
Y536500D02*X164400Y537000D01*
X165400D01*
X165900Y536500D01*
Y535500D01*
X165400Y535000D02*X165900Y535500D01*
X164400Y535000D02*X165400D01*
X163900Y535500D02*X164400Y535000D01*
X167600Y536500D02*Y535000D01*
Y536500D02*X168100Y537000D01*
X169100D01*
X167100D02*X167600Y536500D01*
X172600Y538500D02*Y535000D01*
Y538500D02*X173100Y539000D01*
X173600D01*
X172100Y537000D02*X173100D01*
X174600Y538000D02*Y537900D01*
Y536500D02*Y535000D01*
X176100Y536500D02*Y535000D01*
Y536500D02*X176600Y537000D01*
X177100D01*
X177600Y536500D01*
Y535000D01*
X175600Y537000D02*X176100Y536500D01*
X180800Y539000D02*Y535000D01*
X180300D02*X180800Y535500D01*
X179300Y535000D02*X180300D01*
X178800Y535500D02*X179300Y535000D01*
X178800Y536500D02*Y535500D01*
Y536500D02*X179300Y537000D01*
X180300D01*
X180800Y536500D01*
X182000Y538000D02*Y537900D01*
Y536500D02*Y535000D01*
X183500Y536500D02*Y535000D01*
Y536500D02*X184000Y537000D01*
X184500D01*
X185000Y536500D01*
Y535000D01*
X183000Y537000D02*X183500Y536500D01*
X187700Y537000D02*X188200Y536500D01*
X186700Y537000D02*X187700D01*
X186200Y536500D02*X186700Y537000D01*
X186200Y536500D02*Y535500D01*
X186700Y535000D01*
X187700D01*
X188200Y535500D01*
X186200Y534000D02*X186700Y533500D01*
X187700D01*
X188200Y534000D01*
Y537000D02*Y534000D01*
X191700Y539000D02*Y535500D01*
X192200Y535000D01*
X191200Y537500D02*X192200D01*
X193200Y539000D02*Y535000D01*
Y536500D02*X193700Y537000D01*
X194700D01*
X195200Y536500D01*
Y535000D01*
X196900D02*X198400D01*
X196400Y535500D02*X196900Y535000D01*
X196400Y536500D02*Y535500D01*
Y536500D02*X196900Y537000D01*
X197900D01*
X198400Y536500D01*
X196400Y536000D02*X198400D01*
Y536500D01*
X149500Y526000D02*Y522000D01*
Y523500D02*X150000Y524000D01*
X151000D01*
X151500Y523500D01*
Y522000D01*
X152700Y523500D02*Y522500D01*
Y523500D02*X153200Y524000D01*
X154200D01*
X154700Y523500D01*
Y522500D01*
X154200Y522000D02*X154700Y522500D01*
X153200Y522000D02*X154200D01*
X152700Y522500D02*X153200Y522000D01*
X156400D02*X157900D01*
X158400Y522500D01*
X157900Y523000D02*X158400Y522500D01*
X156400Y523000D02*X157900D01*
X155900Y523500D02*X156400Y523000D01*
X155900Y523500D02*X156400Y524000D01*
X157900D01*
X158400Y523500D01*
X155900Y522500D02*X156400Y522000D01*
X160100Y523500D02*Y520500D01*
X159600Y524000D02*X160100Y523500D01*
X160600Y524000D01*
X161600D01*
X162100Y523500D01*
Y522500D01*
X161600Y522000D02*X162100Y522500D01*
X160600Y522000D02*X161600D01*
X160100Y522500D02*X160600Y522000D01*
X163300Y525000D02*Y524900D01*
Y523500D02*Y522000D01*
X164800Y526000D02*Y522500D01*
X165300Y522000D01*
X164300Y524500D02*X165300D01*
X167800Y524000D02*X168300Y523500D01*
X166800Y524000D02*X167800D01*
X166300Y523500D02*X166800Y524000D01*
X166300Y523500D02*Y522500D01*
X166800Y522000D01*
X168300Y524000D02*Y522500D01*
X168800Y522000D01*
X166800D02*X167800D01*
X168300Y522500D01*
X170000Y526000D02*Y522500D01*
X170500Y522000D01*
X173800D02*X175300D01*
X175800Y522500D01*
X175300Y523000D02*X175800Y522500D01*
X173800Y523000D02*X175300D01*
X173300Y523500D02*X173800Y523000D01*
X173300Y523500D02*X173800Y524000D01*
X175300D01*
X175800Y523500D01*
X173300Y522500D02*X173800Y522000D01*
X178500Y524000D02*X179000Y523500D01*
X177500Y524000D02*X178500D01*
X177000Y523500D02*X177500Y524000D01*
X177000Y523500D02*Y522500D01*
X177500Y522000D01*
X179000Y524000D02*Y522500D01*
X179500Y522000D01*
X177500D02*X178500D01*
X179000Y522500D01*
X181200Y525500D02*Y522000D01*
Y525500D02*X181700Y526000D01*
X182200D01*
X180700Y524000D02*X181700D01*
X183700Y522000D02*X185200D01*
X183200Y522500D02*X183700Y522000D01*
X183200Y523500D02*Y522500D01*
Y523500D02*X183700Y524000D01*
X184700D01*
X185200Y523500D01*
X183200Y523000D02*X185200D01*
Y523500D01*
X186900Y526000D02*Y522500D01*
X187400Y522000D01*
X186400Y524500D02*X187400D01*
X188400Y524000D02*Y522500D01*
X188900Y522000D01*
X190400Y524000D02*Y521000D01*
X189900Y520500D02*X190400Y521000D01*
X188900Y520500D02*X189900D01*
X188400Y521000D02*X188900Y520500D01*
Y522000D02*X189900D01*
X190400Y522500D01*
X191600Y522000D02*X192100D01*
X146000Y593000D02*X146500Y592500D01*
X144500Y593000D02*X146000D01*
X144000Y592500D02*X144500Y593000D01*
X144000Y592500D02*Y589500D01*
X144500Y589000D01*
X146000D01*
X146500Y589500D01*
Y590500D02*Y589500D01*
X146000Y591000D02*X146500Y590500D01*
X145000Y591000D02*X146000D01*
X147700Y593000D02*Y589000D01*
Y593000D02*X150200Y589000D01*
Y593000D02*Y589000D01*
X151900Y593000D02*Y589000D01*
X153200Y593000D02*X153900Y592300D01*
Y589700D01*
X153200Y589000D02*X153900Y589700D01*
X151400Y589000D02*X153200D01*
X151400Y593000D02*X153200D01*
X155600D02*Y589000D01*
X156900Y593000D02*X157600Y592300D01*
Y589700D01*
X156900Y589000D02*X157600Y589700D01*
X155100Y589000D02*X156900D01*
X155100Y593000D02*X156900D01*
X143500Y603000D02*X144000Y602500D01*
X142000Y603000D02*X143500D01*
X141500Y602500D02*X142000Y603000D01*
X141500Y602500D02*Y601500D01*
X142000Y601000D01*
X143500D01*
X144000Y600500D01*
Y599500D01*
X143500Y599000D02*X144000Y599500D01*
X142000Y599000D02*X143500D01*
X141500Y599500D02*X142000Y599000D01*
X145200Y603000D02*X146200Y601000D01*
X147200Y603000D01*
X146200Y601000D02*Y599000D01*
X148400Y603000D02*Y599000D01*
Y603000D02*X150900Y599000D01*
Y603000D02*Y599000D01*
X152800D02*X154100D01*
X152100Y599700D02*X152800Y599000D01*
X152100Y602300D02*Y599700D01*
Y602300D02*X152800Y603000D01*
X154100D01*
X155300D02*Y599000D01*
Y603000D02*X157800Y599000D01*
Y603000D02*Y599000D01*
X152500Y612000D02*Y609000D01*
Y612000D02*X153200Y613000D01*
X154300D01*
X155000Y612000D01*
Y609000D01*
X152500Y611000D02*X155000D01*
X156200Y612200D02*X157000Y613000D01*
Y609000D01*
X156200D02*X157700D01*
X152000Y622000D02*Y619000D01*
Y622000D02*X152700Y623000D01*
X153800D01*
X154500Y622000D01*
Y619000D01*
X152000Y621000D02*X154500D01*
X155700Y622500D02*X156200Y623000D01*
X157200D01*
X157700Y622500D01*
X157200Y619000D02*X157700Y619500D01*
X156200Y619000D02*X157200D01*
X155700Y619500D02*X156200Y619000D01*
Y621200D02*X157200D01*
X157700Y622500D02*Y621700D01*
Y620700D02*Y619500D01*
Y620700D02*X157200Y621200D01*
X157700Y621700D02*X157200Y621200D01*
X151500Y632500D02*Y629500D01*
Y632500D02*X152200Y633500D01*
X153300D01*
X154000Y632500D01*
Y629500D01*
X151500Y631500D02*X154000D01*
X155200Y631000D02*X157200Y633500D01*
X155200Y631000D02*X157700D01*
X157200Y633500D02*Y629500D01*
X146500Y643000D02*X147500D01*
X147000D02*Y639000D01*
X146500D02*X147500D01*
X148700Y643000D02*Y639000D01*
Y643000D02*X151200Y639000D01*
Y643000D02*Y639000D01*
X152400Y643000D02*X154400D01*
X153400D02*Y639000D01*
X155600Y642500D02*X156100Y643000D01*
X157100D01*
X157600Y642500D01*
X157100Y639000D02*X157600Y639500D01*
X156100Y639000D02*X157100D01*
X155600Y639500D02*X156100Y639000D01*
Y641200D02*X157100D01*
X157600Y642500D02*Y641700D01*
Y640700D02*Y639500D01*
Y640700D02*X157100Y641200D01*
X157600Y641700D02*X157100Y641200D01*
X140000Y923000D02*Y919000D01*
X141300Y923000D02*X142000Y922300D01*
Y919700D01*
X141300Y919000D02*X142000Y919700D01*
X139500Y919000D02*X141300D01*
X139500Y923000D02*X141300D01*
X143200Y921200D02*X144700D01*
X143200Y919000D02*X145200D01*
X143200Y923000D02*Y919000D01*
Y923000D02*X145200D01*
X148400D02*X148900Y922500D01*
X146900Y923000D02*X148400D01*
X146400Y922500D02*X146900Y923000D01*
X146400Y922500D02*Y921500D01*
X146900Y921000D01*
X148400D01*
X148900Y920500D01*
Y919500D01*
X148400Y919000D02*X148900Y919500D01*
X146900Y919000D02*X148400D01*
X146400Y919500D02*X146900Y919000D01*
X150100Y923000D02*X151100D01*
X150600D02*Y919000D01*
X150100D02*X151100D01*
X154300Y923000D02*X154800Y922500D01*
X152800Y923000D02*X154300D01*
X152300Y922500D02*X152800Y923000D01*
X152300Y922500D02*Y919500D01*
X152800Y919000D01*
X154300D01*
X154800Y919500D01*
Y920500D02*Y919500D01*
X154300Y921000D02*X154800Y920500D01*
X153300Y921000D02*X154300D01*
X156000Y923000D02*Y919000D01*
Y923000D02*X158500Y919000D01*
Y923000D02*Y919000D01*
X159700Y921200D02*X161200D01*
X159700Y919000D02*X161700D01*
X159700Y923000D02*Y919000D01*
Y923000D02*X161700D01*
X163400D02*Y919000D01*
X164700Y923000D02*X165400Y922300D01*
Y919700D01*
X164700Y919000D02*X165400Y919700D01*
X162900Y919000D02*X164700D01*
X162900Y923000D02*X164700D01*
X168400Y919000D02*X170400D01*
X170900Y919500D01*
Y920700D02*Y919500D01*
X170400Y921200D02*X170900Y920700D01*
X168900Y921200D02*X170400D01*
X168900Y923000D02*Y919000D01*
X168400Y923000D02*X170400D01*
X170900Y922500D01*
Y921700D01*
X170400Y921200D02*X170900Y921700D01*
X172100Y923000D02*X173100Y921000D01*
X174100Y923000D01*
X173100Y921000D02*Y919000D01*
X177100Y921200D02*X178600D01*
X177100Y919000D02*X179100D01*
X177100Y923000D02*Y919000D01*
Y923000D02*X179100D01*
X180300D02*X181300Y919000D01*
X182300Y923000D01*
X183500Y922000D02*Y919000D01*
Y922000D02*X184200Y923000D01*
X185300D01*
X186000Y922000D01*
Y919000D01*
X183500Y921000D02*X186000D01*
X187200Y923000D02*Y919000D01*
Y923000D02*X189700Y919000D01*
Y923000D02*Y919000D01*
X192700Y923000D02*Y919000D01*
Y923000D02*X194700D01*
X192700Y921200D02*X194200D01*
X195900Y922500D02*Y919500D01*
Y922500D02*X196400Y923000D01*
X197400D01*
X197900Y922500D01*
Y919500D01*
X197400Y919000D02*X197900Y919500D01*
X196400Y919000D02*X197400D01*
X195900Y919500D02*X196400Y919000D01*
X201100Y923000D02*X201600Y922500D01*
X199600Y923000D02*X201100D01*
X199100Y922500D02*X199600Y923000D01*
X199100Y922500D02*Y921500D01*
X199600Y921000D01*
X201100D01*
X201600Y920500D01*
Y919500D01*
X201100Y919000D02*X201600Y919500D01*
X199600Y919000D02*X201100D01*
X199100Y919500D02*X199600Y919000D01*
X204800Y923000D02*X205300Y922500D01*
X203300Y923000D02*X204800D01*
X202800Y922500D02*X203300Y923000D01*
X202800Y922500D02*Y921500D01*
X203300Y921000D01*
X204800D01*
X205300Y920500D01*
Y919500D01*
X204800Y919000D02*X205300Y919500D01*
X203300Y919000D02*X204800D01*
X202800Y919500D02*X203300Y919000D01*
X141500Y929500D02*X142000Y929000D01*
X140000Y929500D02*X141500D01*
X139500Y929000D02*X140000Y929500D01*
X139500Y929000D02*Y928000D01*
X140000Y927500D01*
X141500D01*
X142000Y927000D01*
Y926000D01*
X141500Y925500D02*X142000Y926000D01*
X140000Y925500D02*X141500D01*
X139500Y926000D02*X140000Y925500D01*
X143200Y929500D02*Y926000D01*
X143700Y925500D01*
X144700D01*
X145200Y926000D01*
Y929500D02*Y926000D01*
X146400Y925500D02*X148400D01*
X148900Y926000D01*
Y927200D02*Y926000D01*
X148400Y927700D02*X148900Y927200D01*
X146900Y927700D02*X148400D01*
X146900Y929500D02*Y925500D01*
X146400Y929500D02*X148400D01*
X148900Y929000D01*
Y928200D01*
X148400Y927700D02*X148900Y928200D01*
X150100Y929500D02*X152100D01*
X152600Y929000D01*
Y928000D01*
X152100Y927500D02*X152600Y928000D01*
X150600Y927500D02*X152100D01*
X150600Y929500D02*Y925500D01*
X151400Y927500D02*X152600Y925500D01*
X153800Y928500D02*Y925500D01*
Y928500D02*X154500Y929500D01*
X155600D01*
X156300Y928500D01*
Y925500D01*
X153800Y927500D02*X156300D01*
X158200Y925500D02*X159500D01*
X157500Y926200D02*X158200Y925500D01*
X157500Y928800D02*Y926200D01*
Y928800D02*X158200Y929500D01*
X159500D01*
X160700D02*Y925500D01*
Y927500D02*X162700Y929500D01*
X160700Y927500D02*X162700Y925500D01*
X165700Y927700D02*X167200D01*
X165700Y925500D02*X167700D01*
X165700Y929500D02*Y925500D01*
Y929500D02*X167700D01*
X169400D02*Y925500D01*
X170700Y929500D02*X171400Y928800D01*
Y926200D01*
X170700Y925500D02*X171400Y926200D01*
X168900Y925500D02*X170700D01*
X168900Y929500D02*X170700D01*
X174600D02*X175100Y929000D01*
X173100Y929500D02*X174600D01*
X172600Y929000D02*X173100Y929500D01*
X172600Y929000D02*Y926000D01*
X173100Y925500D01*
X174600D01*
X175100Y926000D01*
Y927000D02*Y926000D01*
X174600Y927500D02*X175100Y927000D01*
X173600Y927500D02*X174600D01*
X176300Y927700D02*X177800D01*
X176300Y925500D02*X178300D01*
X176300Y929500D02*Y925500D01*
Y929500D02*X178300D01*
X180200Y925500D02*X181500D01*
X179500Y926200D02*X180200Y925500D01*
X179500Y928800D02*Y926200D01*
Y928800D02*X180200Y929500D01*
X181500D01*
X182700Y928500D02*Y925500D01*
Y928500D02*X183400Y929500D01*
X184500D01*
X185200Y928500D01*
Y925500D01*
X182700Y927500D02*X185200D01*
X186400Y929500D02*X188400D01*
X188900Y929000D01*
Y928000D01*
X188400Y927500D02*X188900Y928000D01*
X186900Y927500D02*X188400D01*
X186900Y929500D02*Y925500D01*
X187700Y927500D02*X188900Y925500D01*
X190600Y929500D02*Y925500D01*
X191900Y929500D02*X192600Y928800D01*
Y926200D01*
X191900Y925500D02*X192600Y926200D01*
X190100Y925500D02*X191900D01*
X190100Y929500D02*X191900D01*
X139500Y909500D02*X140000Y910000D01*
X141500D01*
X142000Y909500D01*
Y908500D01*
X139500Y906000D02*X142000Y908500D01*
X139500Y906000D02*X142000D01*
X143200Y906500D02*X143700Y906000D01*
X143200Y909500D02*Y906500D01*
Y909500D02*X143700Y910000D01*
X144700D01*
X145200Y909500D01*
Y906500D01*
X144700Y906000D02*X145200Y906500D01*
X143700Y906000D02*X144700D01*
X143200Y907000D02*X145200Y909000D01*
X146400Y909200D02*X147200Y910000D01*
Y906000D01*
X146400D02*X147900D01*
X149100Y907500D02*X151100Y910000D01*
X149100Y907500D02*X151600D01*
X151100Y910000D02*Y906000D01*
X152800D02*X153300D01*
X154500Y909200D02*X155300Y910000D01*
Y906000D01*
X154500D02*X156000D01*
X157200Y909500D02*X157700Y910000D01*
X159200D01*
X159700Y909500D01*
Y908500D01*
X157200Y906000D02*X159700Y908500D01*
X157200Y906000D02*X159700D01*
X160900D02*X161400D01*
X162600Y909200D02*X163400Y910000D01*
Y906000D01*
X162600D02*X164100D01*
X165800D02*X167300Y908000D01*
Y909500D02*Y908000D01*
X166800Y910000D02*X167300Y909500D01*
X165800Y910000D02*X166800D01*
X165300Y909500D02*X165800Y910000D01*
X165300Y909500D02*Y908500D01*
X165800Y908000D01*
X167300D01*
X139500Y914700D02*X141000D01*
X139500Y912500D02*X141500D01*
X139500Y916500D02*Y912500D01*
Y916500D02*X141500D01*
X142700Y915500D02*Y912500D01*
Y915500D02*X143400Y916500D01*
X144500D01*
X145200Y915500D01*
Y912500D01*
X142700Y914500D02*X145200D01*
X146400Y916500D02*X148400D01*
X147400D02*Y912500D01*
X149600Y916000D02*Y913000D01*
Y916000D02*X150100Y916500D01*
X151100D01*
X151600Y916000D01*
Y913000D01*
X151100Y912500D02*X151600Y913000D01*
X150100Y912500D02*X151100D01*
X149600Y913000D02*X150100Y912500D01*
X152800Y916500D02*Y912500D01*
Y916500D02*X155300Y912500D01*
Y916500D02*Y912500D01*
X158800Y916500D02*Y912500D01*
X158300Y916500D02*X160300D01*
X160800Y916000D01*
Y915000D01*
X160300Y914500D02*X160800Y915000D01*
X158800Y914500D02*X160300D01*
X162000Y914700D02*X163500D01*
X162000Y912500D02*X164000D01*
X162000Y916500D02*Y912500D01*
Y916500D02*X164000D01*
X165200Y915500D02*Y912500D01*
Y915500D02*X165900Y916500D01*
X167000D01*
X167700Y915500D01*
Y912500D01*
X165200Y914500D02*X167700D01*
X168900Y912500D02*X170900D01*
X171400Y913000D01*
Y914200D02*Y913000D01*
X170900Y914700D02*X171400Y914200D01*
X169400Y914700D02*X170900D01*
X169400Y916500D02*Y912500D01*
X168900Y916500D02*X170900D01*
X171400Y916000D01*
Y915200D01*
X170900Y914700D02*X171400Y915200D01*
X172600Y916000D02*Y913000D01*
Y916000D02*X173100Y916500D01*
X174100D01*
X174600Y916000D01*
Y913000D01*
X174100Y912500D02*X174600Y913000D01*
X173100Y912500D02*X174100D01*
X172600Y913000D02*X173100Y912500D01*
X176300Y916500D02*Y912500D01*
X177600Y916500D02*X178300Y915800D01*
Y913200D01*
X177600Y912500D02*X178300Y913200D01*
X175800Y912500D02*X177600D01*
X175800Y916500D02*X177600D01*
X179500D02*X180500Y914500D01*
X181500Y916500D01*
X180500Y914500D02*Y912500D01*
X184500Y916500D02*Y912500D01*
X186500D01*
X187700Y915500D02*Y912500D01*
Y915500D02*X188400Y916500D01*
X189500D01*
X190200Y915500D01*
Y912500D01*
X187700Y914500D02*X190200D01*
X191400Y912500D02*X193400D01*
X193900Y913000D01*
Y914200D02*Y913000D01*
X193400Y914700D02*X193900Y914200D01*
X191900Y914700D02*X193400D01*
X191900Y916500D02*Y912500D01*
X191400Y916500D02*X193400D01*
X193900Y916000D01*
Y915200D01*
X193400Y914700D02*X193900Y915200D01*
X146000Y733000D02*X146500Y732500D01*
X144500Y733000D02*X146000D01*
X144000Y732500D02*X144500Y733000D01*
X144000Y732500D02*Y729500D01*
X144500Y729000D01*
X146000D01*
X146500Y729500D01*
Y730500D02*Y729500D01*
X146000Y731000D02*X146500Y730500D01*
X145000Y731000D02*X146000D01*
X147700Y733000D02*Y729000D01*
Y733000D02*X150200Y729000D01*
Y733000D02*Y729000D01*
X151900Y733000D02*Y729000D01*
X153200Y733000D02*X153900Y732300D01*
Y729700D01*
X153200Y729000D02*X153900Y729700D01*
X151400Y729000D02*X153200D01*
X151400Y733000D02*X153200D01*
X155600D02*Y729000D01*
X156900Y733000D02*X157600Y732300D01*
Y729700D01*
X156900Y729000D02*X157600Y729700D01*
X155100Y729000D02*X156900D01*
X155100Y733000D02*X156900D01*
X192000D02*X192500Y732500D01*
X190500Y733000D02*X192000D01*
X190000Y732500D02*X190500Y733000D01*
X190000Y732500D02*Y729500D01*
X190500Y729000D01*
X192000D01*
X192500Y729500D01*
Y730500D02*Y729500D01*
X192000Y731000D02*X192500Y730500D01*
X191000Y731000D02*X192000D01*
X193700Y733000D02*Y729000D01*
Y733000D02*X196200Y729000D01*
Y733000D02*Y729000D01*
X197900Y733000D02*Y729000D01*
X199200Y733000D02*X199900Y732300D01*
Y729700D01*
X199200Y729000D02*X199900Y729700D01*
X197400Y729000D02*X199200D01*
X197400Y733000D02*X199200D01*
X201600D02*Y729000D01*
X202900Y733000D02*X203600Y732300D01*
Y729700D01*
X202900Y729000D02*X203600Y729700D01*
X201100Y729000D02*X202900D01*
X201100Y733000D02*X202900D01*
X150500Y792800D02*Y791500D01*
X151200Y793500D02*X150500Y792800D01*
X153800Y793500D02*X151200D01*
X153800D02*X154500Y792800D01*
Y791500D01*
X154000Y790300D02*X151000D01*
X154000D02*X154500Y789800D01*
Y788800D01*
X154000Y788300D01*
X151000D01*
X150500Y788800D02*X151000Y788300D01*
X150500Y789800D02*Y788800D01*
X151000Y790300D02*X150500Y789800D01*
X154500Y787100D02*X150500D01*
X154500D02*X150500Y784600D01*
X154500D02*X150500D01*
X154500Y783400D02*X150500D01*
X154500D02*X150500Y780900D01*
X154500D02*X150500D01*
X152000Y779700D02*X154500Y777700D01*
X152000Y779700D02*Y777200D01*
X154500Y777700D02*X150500D01*
Y863300D02*Y862000D01*
X151200Y864000D02*X150500Y863300D01*
X153800Y864000D02*X151200D01*
X153800D02*X154500Y863300D01*
Y862000D01*
X154000Y860800D02*X151000D01*
X154000D02*X154500Y860300D01*
Y859300D01*
X154000Y858800D01*
X151000D01*
X150500Y859300D02*X151000Y858800D01*
X150500Y860300D02*Y859300D01*
X151000Y860800D02*X150500Y860300D01*
X154500Y857600D02*X150500D01*
X154500D02*X150500Y855100D01*
X154500D02*X150500D01*
X154500Y853900D02*X150500D01*
X154500D02*X150500Y851400D01*
X154500D02*X150500D01*
X154000Y850200D02*X154500Y849700D01*
Y848200D01*
X154000Y847700D01*
X153000D01*
X150500Y850200D02*X153000Y847700D01*
X150500Y850200D02*Y847700D01*
X262047Y924732D02*Y920732D01*
X264047D01*
X265247Y923932D02*X266047Y924732D01*
Y920732D01*
X265247D02*X266747D01*
X267947Y921232D02*X268447Y920732D01*
X267947Y924232D02*Y921232D01*
Y924232D02*X268447Y924732D01*
X269447D01*
X269947Y924232D01*
Y921232D01*
X269447Y920732D02*X269947Y921232D01*
X268447Y920732D02*X269447D01*
X267947Y921732D02*X269947Y923732D01*
X271147Y924232D02*X271647Y924732D01*
X273147D01*
X273647Y924232D01*
Y923232D01*
X271147Y920732D02*X273647Y923232D01*
X271147Y920732D02*X273647D01*
X238441Y929035D02*Y926035D01*
Y929035D02*X238941Y929535D01*
X239941D01*
X240441Y929035D01*
Y926535D01*
X239441Y925535D02*X240441Y926535D01*
X238941Y925535D02*X239441D01*
X238441Y926035D02*X238941Y925535D01*
X239441Y927035D02*X240441Y925535D01*
X241641Y928735D02*X242441Y929535D01*
Y925535D01*
X241641D02*X243141D01*
X244341Y926035D02*X244841Y925535D01*
X244341Y929035D02*Y926035D01*
Y929035D02*X244841Y929535D01*
X245841D01*
X246341Y929035D01*
Y926035D01*
X245841Y925535D02*X246341Y926035D01*
X244841Y925535D02*X245841D01*
X244341Y926535D02*X246341Y928535D01*
X247541Y929035D02*X248041Y929535D01*
X249041D01*
X249541Y929035D01*
X249041Y925535D02*X249541Y926035D01*
X248041Y925535D02*X249041D01*
X247541Y926035D02*X248041Y925535D01*
Y927735D02*X249041D01*
X249541Y929035D02*Y928235D01*
Y927235D02*Y926035D01*
Y927235D02*X249041Y927735D01*
X249541Y928235D02*X249041Y927735D01*
X276441Y929035D02*Y926035D01*
Y929035D02*X276941Y929535D01*
X277941D01*
X278441Y929035D01*
Y926535D01*
X277441Y925535D02*X278441Y926535D01*
X276941Y925535D02*X277441D01*
X276441Y926035D02*X276941Y925535D01*
X277441Y927035D02*X278441Y925535D01*
X279641Y928735D02*X280441Y929535D01*
Y925535D01*
X279641D02*X281141D01*
X282341Y926035D02*X282841Y925535D01*
X282341Y929035D02*Y926035D01*
Y929035D02*X282841Y929535D01*
X283841D01*
X284341Y929035D01*
Y926035D01*
X283841Y925535D02*X284341Y926035D01*
X282841Y925535D02*X283841D01*
X282341Y926535D02*X284341Y928535D01*
X285541Y927035D02*X287541Y929535D01*
X285541Y927035D02*X288041D01*
X287541Y929535D02*Y925535D01*
X316441Y929035D02*Y926035D01*
Y929035D02*X316941Y929535D01*
X317941D01*
X318441Y929035D01*
Y926535D01*
X317441Y925535D02*X318441Y926535D01*
X316941Y925535D02*X317441D01*
X316441Y926035D02*X316941Y925535D01*
X317441Y927035D02*X318441Y925535D01*
X319641Y928735D02*X320441Y929535D01*
Y925535D01*
X319641D02*X321141D01*
X322341Y926035D02*X322841Y925535D01*
X322341Y929035D02*Y926035D01*
Y929035D02*X322841Y929535D01*
X323841D01*
X324341Y929035D01*
Y926035D01*
X323841Y925535D02*X324341Y926035D01*
X322841Y925535D02*X323841D01*
X322341Y926535D02*X324341Y928535D01*
X325541Y928735D02*X326341Y929535D01*
Y925535D01*
X325541D02*X327041D01*
X354441Y929035D02*Y926035D01*
Y929035D02*X354941Y929535D01*
X355941D01*
X356441Y929035D01*
Y926535D01*
X355441Y925535D02*X356441Y926535D01*
X354941Y925535D02*X355441D01*
X354441Y926035D02*X354941Y925535D01*
X355441Y927035D02*X356441Y925535D01*
X357641Y928735D02*X358441Y929535D01*
Y925535D01*
X357641D02*X359141D01*
X360341Y926035D02*X360841Y925535D01*
X360341Y929035D02*Y926035D01*
Y929035D02*X360841Y929535D01*
X361841D01*
X362341Y929035D01*
Y926035D01*
X361841Y925535D02*X362341Y926035D01*
X360841Y925535D02*X361841D01*
X360341Y926535D02*X362341Y928535D01*
X363541Y929035D02*X364041Y929535D01*
X365541D01*
X366041Y929035D01*
Y928035D01*
X363541Y925535D02*X366041Y928035D01*
X363541Y925535D02*X366041D01*
X359951Y918622D02*X361251D01*
X359251Y919322D02*X359951Y918622D01*
X359251Y921922D02*Y919322D01*
Y921922D02*X359951Y922622D01*
X361251D01*
X362451Y921822D02*X363251Y922622D01*
Y918622D01*
X362451D02*X363951D01*
X365151Y921822D02*X365951Y922622D01*
Y918622D01*
X365151D02*X366651D01*
X367851Y919122D02*X368351Y918622D01*
X367851Y922122D02*Y919122D01*
Y922122D02*X368351Y922622D01*
X369351D01*
X369851Y922122D01*
Y919122D01*
X369351Y918622D02*X369851Y919122D01*
X368351Y918622D02*X369351D01*
X367851Y919622D02*X369851Y921622D01*
X245726Y852813D02*Y854813D01*
X246226Y855313D01*
X247226D01*
X247726Y854813D02*X247226Y855313D01*
X247726Y853313D02*Y854813D01*
X245726Y853313D02*X249726D01*
X247726Y854113D02*X249726Y855313D01*
X246526Y856513D02*X245726Y857313D01*
X249726D01*
Y856513D02*Y858013D01*
X249226Y859213D02*X249726Y859713D01*
X246226Y859213D02*X249226D01*
X246226D02*X245726Y859713D01*
Y860713D01*
X246226Y861213D01*
X249226D01*
X249726Y860713D02*X249226Y861213D01*
X249726Y859713D02*Y860713D01*
X248726Y859213D02*X246726Y861213D01*
X245726Y863913D02*X246226Y864413D01*
X245726Y862913D02*Y863913D01*
X246226Y862413D02*X245726Y862913D01*
X246226Y862413D02*X249226D01*
X249726Y862913D01*
X247526Y863913D02*X248026Y864413D01*
X247526Y862413D02*Y863913D01*
X249726Y862913D02*Y863913D01*
X249226Y864413D01*
X248026D02*X249226D01*
X230820Y854531D02*X232820D01*
X233320Y854031D01*
Y853031D01*
X232820Y852531D02*X233320Y853031D01*
X231320Y852531D02*X232820D01*
X231320Y854531D02*Y850531D01*
X232120Y852531D02*X233320Y850531D01*
X234520Y853731D02*X235320Y854531D01*
Y850531D01*
X234520D02*X236020D01*
X237220Y851031D02*X237720Y850531D01*
X237220Y854031D02*Y851031D01*
Y854031D02*X237720Y854531D01*
X238720D01*
X239220Y854031D01*
Y851031D01*
X238720Y850531D02*X239220Y851031D01*
X237720Y850531D02*X238720D01*
X237220Y851531D02*X239220Y853531D01*
X240420Y854031D02*X240920Y854531D01*
X241920D01*
X242420Y854031D01*
X241920Y850531D02*X242420Y851031D01*
X240920Y850531D02*X241920D01*
X240420Y851031D02*X240920Y850531D01*
Y852731D02*X241920D01*
X242420Y854031D02*Y853231D01*
Y852231D02*Y851031D01*
Y852231D02*X241920Y852731D01*
X242420Y853231D02*X241920Y852731D01*
X237298Y817205D02*X238598D01*
X236598Y817905D02*X237298Y817205D01*
X236598Y820505D02*Y817905D01*
Y820505D02*X237298Y821205D01*
X238598D01*
X239798Y820705D02*X240298Y821205D01*
X241798D01*
X242298Y820705D01*
Y819705D01*
X239798Y817205D02*X242298Y819705D01*
X239798Y817205D02*X242298D01*
X243498Y817705D02*X243998Y817205D01*
X243498Y820705D02*Y817705D01*
Y820705D02*X243998Y821205D01*
X244998D01*
X245498Y820705D01*
Y817705D01*
X244998Y817205D02*X245498Y817705D01*
X243998Y817205D02*X244998D01*
X243498Y818205D02*X245498Y820205D01*
X246698Y820705D02*X247198Y821205D01*
X248198D01*
X248698Y820705D01*
X248198Y817205D02*X248698Y817705D01*
X247198Y817205D02*X248198D01*
X246698Y817705D02*X247198Y817205D01*
Y819405D02*X248198D01*
X248698Y820705D02*Y819905D01*
Y818905D02*Y817705D01*
Y818905D02*X248198Y819405D01*
X248698Y819905D02*X248198Y819405D01*
X237910Y798500D02*X239210D01*
X237210Y799200D02*X237910Y798500D01*
X237210Y801800D02*Y799200D01*
Y801800D02*X237910Y802500D01*
X239210D01*
X240410Y802000D02*X240910Y802500D01*
X242410D01*
X242910Y802000D01*
Y801000D01*
X240410Y798500D02*X242910Y801000D01*
X240410Y798500D02*X242910D01*
X244110Y799000D02*X244610Y798500D01*
X244110Y802000D02*Y799000D01*
Y802000D02*X244610Y802500D01*
X245610D01*
X246110Y802000D01*
Y799000D01*
X245610Y798500D02*X246110Y799000D01*
X244610Y798500D02*X245610D01*
X244110Y799500D02*X246110Y801500D01*
X247310Y802500D02*X249310D01*
X247310D02*Y800500D01*
X247810Y801000D01*
X248810D01*
X249310Y800500D01*
Y799000D01*
X248810Y798500D02*X249310Y799000D01*
X247810Y798500D02*X248810D01*
X247310Y799000D02*X247810Y798500D01*
X269500Y869500D02*Y866000D01*
X270000Y865500D01*
X271000D01*
X271500Y866000D01*
Y869500D02*Y866000D01*
X272700Y868700D02*X273500Y869500D01*
Y865500D01*
X272700D02*X274200D01*
X275400Y866000D02*X275900Y865500D01*
X275400Y869000D02*Y866000D01*
Y869000D02*X275900Y869500D01*
X276900D01*
X277400Y869000D01*
Y866000D01*
X276900Y865500D02*X277400Y866000D01*
X275900Y865500D02*X276900D01*
X275400Y866500D02*X277400Y868500D01*
X278600Y868700D02*X279400Y869500D01*
Y865500D01*
X278600D02*X280100D01*
X275000Y808000D02*Y804500D01*
X275500Y804000D01*
X276500D01*
X277000Y804500D01*
Y808000D02*Y804500D01*
X278200Y807500D02*X278700Y808000D01*
X280200D01*
X280700Y807500D01*
Y806500D01*
X278200Y804000D02*X280700Y806500D01*
X278200Y804000D02*X280700D01*
X281900Y804500D02*X282400Y804000D01*
X281900Y807500D02*Y804500D01*
Y807500D02*X282400Y808000D01*
X283400D01*
X283900Y807500D01*
Y804500D01*
X283400Y804000D02*X283900Y804500D01*
X282400Y804000D02*X283400D01*
X281900Y805000D02*X283900Y807000D01*
X285100Y807200D02*X285900Y808000D01*
Y804000D01*
X285100D02*X286600D01*
X292550Y817150D02*X293850D01*
X291850Y817850D02*X292550Y817150D01*
X291850Y820450D02*Y817850D01*
Y820450D02*X292550Y821150D01*
X293850D01*
X295050Y820650D02*X295550Y821150D01*
X297050D01*
X297550Y820650D01*
Y819650D01*
X295050Y817150D02*X297550Y819650D01*
X295050Y817150D02*X297550D01*
X298750Y817650D02*X299250Y817150D01*
X298750Y820650D02*Y817650D01*
Y820650D02*X299250Y821150D01*
X300250D01*
X300750Y820650D01*
Y817650D01*
X300250Y817150D02*X300750Y817650D01*
X299250Y817150D02*X300250D01*
X298750Y818150D02*X300750Y820150D01*
X303450Y821150D02*X303950Y820650D01*
X302450Y821150D02*X303450D01*
X301950Y820650D02*X302450Y821150D01*
X301950Y820650D02*Y817650D01*
X302450Y817150D01*
X303450Y819350D02*X303950Y818850D01*
X301950Y819350D02*X303450D01*
X302450Y817150D02*X303450D01*
X303950Y817650D01*
Y818850D02*Y817650D01*
X298850Y788700D02*Y790700D01*
X299350Y791200D01*
X300350D01*
X300850Y790700D02*X300350Y791200D01*
X300850Y789200D02*Y790700D01*
X298850Y789200D02*X302850D01*
X300850Y790000D02*X302850Y791200D01*
X299350Y792400D02*X298850Y792900D01*
Y794400D01*
X299350Y794900D01*
X300350D01*
X302850Y792400D02*X300350Y794900D01*
X302850Y792400D02*Y794900D01*
X302350Y796100D02*X302850Y796600D01*
X299350Y796100D02*X302350D01*
X299350D02*X298850Y796600D01*
Y797600D01*
X299350Y798100D01*
X302350D01*
X302850Y797600D02*X302350Y798100D01*
X302850Y796600D02*Y797600D01*
X301850Y796100D02*X299850Y798100D01*
X299650Y799300D02*X298850Y800100D01*
X302850D01*
Y799300D02*Y800800D01*
X314850Y788264D02*Y790264D01*
X315350Y790764D01*
X316350D01*
X316850Y790264D02*X316350Y790764D01*
X316850Y788764D02*Y790264D01*
X314850Y788764D02*X318850D01*
X316850Y789564D02*X318850Y790764D01*
X315350Y791964D02*X314850Y792464D01*
Y793964D01*
X315350Y794464D01*
X316350D01*
X318850Y791964D02*X316350Y794464D01*
X318850Y791964D02*Y794464D01*
X318350Y795664D02*X318850Y796164D01*
X315350Y795664D02*X318350D01*
X315350D02*X314850Y796164D01*
Y797164D01*
X315350Y797664D01*
X318350D01*
X318850Y797164D02*X318350Y797664D01*
X318850Y796164D02*Y797164D01*
X317850Y795664D02*X315850Y797664D01*
X315350Y798864D02*X314850Y799364D01*
Y800364D01*
X315350Y800864D01*
X318850Y800364D02*X318350Y800864D01*
X318850Y799364D02*Y800364D01*
X318350Y798864D02*X318850Y799364D01*
X316650D02*Y800364D01*
X315350Y800864D02*X316150D01*
X317150D02*X318350D01*
X317150D02*X316650Y800364D01*
X316150Y800864D02*X316650Y800364D01*
X318795Y759141D02*Y760441D01*
X318095Y758441D02*X318795Y759141D01*
X315495Y758441D02*X318095D01*
X315495D02*X314795Y759141D01*
Y760441D01*
X315295Y761641D02*X314795Y762141D01*
Y763641D01*
X315295Y764141D01*
X316295D01*
X318795Y761641D02*X316295Y764141D01*
X318795Y761641D02*Y764141D01*
X318295Y765341D02*X318795Y765841D01*
X315295Y765341D02*X318295D01*
X315295D02*X314795Y765841D01*
Y766841D01*
X315295Y767341D01*
X318295D01*
X318795Y766841D02*X318295Y767341D01*
X318795Y765841D02*Y766841D01*
X317795Y765341D02*X315795Y767341D01*
X315595Y768541D02*X314795Y769341D01*
X318795D01*
Y768541D02*Y770041D01*
X332969Y758013D02*Y760013D01*
X333469Y760513D01*
X334469D01*
X334969Y760013D02*X334469Y760513D01*
X334969Y758513D02*Y760013D01*
X332969Y758513D02*X336969D01*
X334969Y759313D02*X336969Y760513D01*
X333469Y761713D02*X332969Y762213D01*
Y763713D01*
X333469Y764213D01*
X334469D01*
X336969Y761713D02*X334469Y764213D01*
X336969Y761713D02*Y764213D01*
X336469Y765413D02*X336969Y765913D01*
X333469Y765413D02*X336469D01*
X333469D02*X332969Y765913D01*
Y766913D01*
X333469Y767413D01*
X336469D01*
X336969Y766913D02*X336469Y767413D01*
X336969Y765913D02*Y766913D01*
X335969Y765413D02*X333969Y767413D01*
X335469Y768613D02*X332969Y770613D01*
X335469Y768613D02*Y771113D01*
X332969Y770613D02*X336969D01*
X300795Y759141D02*Y760441D01*
X300095Y758441D02*X300795Y759141D01*
X297495Y758441D02*X300095D01*
X297495D02*X296795Y759141D01*
Y760441D01*
X297295Y761641D02*X296795Y762141D01*
Y763641D01*
X297295Y764141D01*
X298295D01*
X300795Y761641D02*X298295Y764141D01*
X300795Y761641D02*Y764141D01*
X300295Y765341D02*X300795Y765841D01*
X297295Y765341D02*X300295D01*
X297295D02*X296795Y765841D01*
Y766841D01*
X297295Y767341D01*
X300295D01*
X300795Y766841D02*X300295Y767341D01*
X300795Y765841D02*Y766841D01*
X299795Y765341D02*X297795Y767341D01*
X297295Y768541D02*X296795Y769041D01*
Y770541D01*
X297295Y771041D01*
X298295D01*
X300795Y768541D02*X298295Y771041D01*
X300795Y768541D02*Y771041D01*
X274778Y764031D02*X276778D01*
X277278Y763531D01*
Y762531D01*
X276778Y762031D02*X277278Y762531D01*
X275278Y762031D02*X276778D01*
X275278Y764031D02*Y760031D01*
X276078Y762031D02*X277278Y760031D01*
X278478Y763531D02*X278978Y764031D01*
X280478D01*
X280978Y763531D01*
Y762531D01*
X278478Y760031D02*X280978Y762531D01*
X278478Y760031D02*X280978D01*
X282178Y760531D02*X282678Y760031D01*
X282178Y763531D02*Y760531D01*
Y763531D02*X282678Y764031D01*
X283678D01*
X284178Y763531D01*
Y760531D01*
X283678Y760031D02*X284178Y760531D01*
X282678Y760031D02*X283678D01*
X282178Y761031D02*X284178Y763031D01*
X285378Y764031D02*X287378D01*
X285378D02*Y762031D01*
X285878Y762531D01*
X286878D01*
X287378Y762031D01*
Y760531D01*
X286878Y760031D02*X287378Y760531D01*
X285878Y760031D02*X286878D01*
X285378Y760531D02*X285878Y760031D01*
X274465Y779150D02*X276465D01*
X276965Y778650D01*
Y777650D01*
X276465Y777150D02*X276965Y777650D01*
X274965Y777150D02*X276465D01*
X274965Y779150D02*Y775150D01*
X275765Y777150D02*X276965Y775150D01*
X278165Y778650D02*X278665Y779150D01*
X280165D01*
X280665Y778650D01*
Y777650D01*
X278165Y775150D02*X280665Y777650D01*
X278165Y775150D02*X280665D01*
X281865Y775650D02*X282365Y775150D01*
X281865Y778650D02*Y775650D01*
Y778650D02*X282365Y779150D01*
X283365D01*
X283865Y778650D01*
Y775650D01*
X283365Y775150D02*X283865Y775650D01*
X282365Y775150D02*X283365D01*
X281865Y776150D02*X283865Y778150D01*
X285065Y778650D02*X285565Y779150D01*
X287065D01*
X287565Y778650D01*
Y777650D01*
X285065Y775150D02*X287565Y777650D01*
X285065Y775150D02*X287565D01*
X255967Y757363D02*X257267D01*
X255267Y758063D02*X255967Y757363D01*
X255267Y760663D02*Y758063D01*
Y760663D02*X255967Y761363D01*
X257267D01*
X258467Y760563D02*X259267Y761363D01*
Y757363D01*
X258467D02*X259967D01*
X261167Y757863D02*X261667Y757363D01*
X261167Y760863D02*Y757863D01*
Y760863D02*X261667Y761363D01*
X262667D01*
X263167Y760863D01*
Y757863D01*
X262667Y757363D02*X263167Y757863D01*
X261667Y757363D02*X262667D01*
X261167Y758363D02*X263167Y760363D01*
X264867Y757363D02*X266367Y759363D01*
Y760863D02*Y759363D01*
X265867Y761363D02*X266367Y760863D01*
X264867Y761363D02*X265867D01*
X264367Y760863D02*X264867Y761363D01*
X264367Y760863D02*Y759863D01*
X264867Y759363D01*
X266367D01*
X230557Y889168D02*X232557D01*
X233057Y888668D01*
Y887668D01*
X232557Y887168D02*X233057Y887668D01*
X231057Y887168D02*X232557D01*
X231057Y889168D02*Y885168D01*
X231857Y887168D02*X233057Y885168D01*
X234257Y888368D02*X235057Y889168D01*
Y885168D01*
X234257D02*X235757D01*
X236957Y885668D02*X237457Y885168D01*
X236957Y888668D02*Y885668D01*
Y888668D02*X237457Y889168D01*
X238457D01*
X238957Y888668D01*
Y885668D01*
X238457Y885168D02*X238957Y885668D01*
X237457Y885168D02*X238457D01*
X236957Y886168D02*X238957Y888168D01*
X240157Y886668D02*X242157Y889168D01*
X240157Y886668D02*X242657D01*
X242157Y889168D02*Y885168D01*
X233226Y861535D02*Y863535D01*
X233726Y864035D01*
X234726D01*
X235226Y863535D02*X234726Y864035D01*
X235226Y862035D02*Y863535D01*
X233226Y862035D02*X237226D01*
X235226Y862835D02*X237226Y864035D01*
X234026Y865235D02*X233226Y866035D01*
X237226D01*
Y865235D02*Y866735D01*
X236726Y867935D02*X237226Y868435D01*
X233726Y867935D02*X236726D01*
X233726D02*X233226Y868435D01*
Y869435D01*
X233726Y869935D01*
X236726D01*
X237226Y869435D02*X236726Y869935D01*
X237226Y868435D02*Y869435D01*
X236226Y867935D02*X234226Y869935D01*
X233226Y871135D02*Y873135D01*
Y871135D02*X235226D01*
X234726Y871635D01*
Y872635D01*
X235226Y873135D01*
X236726D01*
X237226Y872635D02*X236726Y873135D01*
X237226Y871635D02*Y872635D01*
X236726Y871135D02*X237226Y871635D01*
X250741Y874488D02*Y876488D01*
X251241Y876988D01*
X252241D01*
X252741Y876488D02*X252241Y876988D01*
X252741Y874988D02*Y876488D01*
X250741Y874988D02*X254741D01*
X252741Y875788D02*X254741Y876988D01*
X251541Y878188D02*X250741Y878988D01*
X254741D01*
Y878188D02*Y879688D01*
X254241Y880888D02*X254741Y881388D01*
X251241Y880888D02*X254241D01*
X251241D02*X250741Y881388D01*
Y882388D01*
X251241Y882888D01*
X254241D01*
X254741Y882388D02*X254241Y882888D01*
X254741Y881388D02*Y882388D01*
X253741Y880888D02*X251741Y882888D01*
X251241Y884088D02*X250741Y884588D01*
Y886088D01*
X251241Y886588D01*
X252241D01*
X254741Y884088D02*X252241Y886588D01*
X254741Y884088D02*Y886588D01*
X266878Y876629D02*Y878629D01*
X267378Y879129D01*
X268378D01*
X268878Y878629D02*X268378Y879129D01*
X268878Y877129D02*Y878629D01*
X266878Y877129D02*X270878D01*
X268878Y877929D02*X270878Y879129D01*
X267678Y880329D02*X266878Y881129D01*
X270878D01*
Y880329D02*Y881829D01*
X270378Y883029D02*X270878Y883529D01*
X267378Y883029D02*X270378D01*
X267378D02*X266878Y883529D01*
Y884529D01*
X267378Y885029D01*
X270378D01*
X270878Y884529D02*X270378Y885029D01*
X270878Y883529D02*Y884529D01*
X269878Y883029D02*X267878Y885029D01*
X267678Y886229D02*X266878Y887029D01*
X270878D01*
Y886229D02*Y887729D01*
X314000Y893700D02*Y895000D01*
X313300Y893000D02*X314000Y893700D01*
X310700Y893000D02*X313300D01*
X310700D02*X310000Y893700D01*
Y895000D01*
X310800Y896200D02*X310000Y897000D01*
X314000D01*
Y896200D02*Y897700D01*
X313500Y898900D02*X314000Y899400D01*
X310500Y898900D02*X313500D01*
X310500D02*X310000Y899400D01*
Y900400D01*
X310500Y900900D01*
X313500D01*
X314000Y900400D02*X313500Y900900D01*
X314000Y899400D02*Y900400D01*
X313000Y898900D02*X311000Y900900D01*
X310800Y902100D02*X310000Y902900D01*
X314000D01*
Y902100D02*Y903600D01*
X334047Y893732D02*Y889732D01*
X336047D01*
X337247Y892932D02*X338047Y893732D01*
Y889732D01*
X337247D02*X338747D01*
X339947Y890232D02*X340447Y889732D01*
X339947Y893232D02*Y890232D01*
Y893232D02*X340447Y893732D01*
X341447D01*
X341947Y893232D01*
Y890232D01*
X341447Y889732D02*X341947Y890232D01*
X340447Y889732D02*X341447D01*
X339947Y890732D02*X341947Y892732D01*
X343147Y892932D02*X343947Y893732D01*
Y889732D01*
X343147D02*X344647D01*
X292938Y879979D02*X294238D01*
X292238Y880679D02*X292938Y879979D01*
X292238Y883279D02*Y880679D01*
Y883279D02*X292938Y883979D01*
X294238D01*
X295438Y883179D02*X296238Y883979D01*
Y879979D01*
X295438D02*X296938D01*
X298138Y880479D02*X298638Y879979D01*
X298138Y883479D02*Y880479D01*
Y883479D02*X298638Y883979D01*
X299638D01*
X300138Y883479D01*
Y880479D01*
X299638Y879979D02*X300138Y880479D01*
X298638Y879979D02*X299638D01*
X298138Y880979D02*X300138Y882979D01*
X301338Y883979D02*X303338D01*
X301338D02*Y881979D01*
X301838Y882479D01*
X302838D01*
X303338Y881979D01*
Y880479D01*
X302838Y879979D02*X303338Y880479D01*
X301838Y879979D02*X302838D01*
X301338Y880479D02*X301838Y879979D01*
X359107Y900979D02*X360407D01*
X358407Y901679D02*X359107Y900979D01*
X358407Y904279D02*Y901679D01*
Y904279D02*X359107Y904979D01*
X360407D01*
X361607Y904179D02*X362407Y904979D01*
Y900979D01*
X361607D02*X363107D01*
X364307Y901479D02*X364807Y900979D01*
X364307Y904479D02*Y901479D01*
Y904479D02*X364807Y904979D01*
X365807D01*
X366307Y904479D01*
Y901479D01*
X365807Y900979D02*X366307Y901479D01*
X364807Y900979D02*X365807D01*
X364307Y901979D02*X366307Y903979D01*
X367507Y901479D02*X368007Y900979D01*
X367507Y902279D02*Y901479D01*
Y902279D02*X368207Y902979D01*
X368807D01*
X369507Y902279D01*
Y901479D01*
X369007Y900979D02*X369507Y901479D01*
X368007Y900979D02*X369007D01*
X367507Y903679D02*X368207Y902979D01*
X367507Y904479D02*Y903679D01*
Y904479D02*X368007Y904979D01*
X369007D01*
X369507Y904479D01*
Y903679D01*
X368807Y902979D02*X369507Y903679D01*
X138000Y709500D02*X141000Y712500D01*
X142200Y713000D02*X144200D01*
X144700Y712500D01*
Y711500D01*
X144200Y711000D02*X144700Y711500D01*
X142700Y711000D02*X144200D01*
X142700Y713000D02*Y709000D01*
X143500Y711000D02*X144700Y709000D01*
X145900Y711200D02*X147400D01*
X145900Y709000D02*X147900D01*
X145900Y713000D02*Y709000D01*
Y713000D02*X147900D01*
X151100D02*X151600Y712500D01*
X149600Y713000D02*X151100D01*
X149100Y712500D02*X149600Y713000D01*
X149100Y712500D02*Y711500D01*
X149600Y711000D01*
X151100D01*
X151600Y710500D01*
Y709500D01*
X151100Y709000D02*X151600Y709500D01*
X149600Y709000D02*X151100D01*
X149100Y709500D02*X149600Y709000D01*
X152800Y711200D02*X154300D01*
X152800Y709000D02*X154800D01*
X152800Y713000D02*Y709000D01*
Y713000D02*X154800D01*
X156000D02*X158000D01*
X157000D02*Y709000D01*
X152000Y703000D02*X154000D01*
X154500Y702500D01*
Y701500D01*
X154000Y701000D02*X154500Y701500D01*
X152500Y701000D02*X154000D01*
X152500Y703000D02*Y699000D01*
X153300Y701000D02*X154500Y699000D01*
X155700D02*X158200Y703000D01*
X155700D02*X158200Y699000D01*
X153000Y693000D02*Y689000D01*
X154300Y693000D02*X155000Y692300D01*
Y689700D01*
X154300Y689000D02*X155000Y689700D01*
X152500Y689000D02*X154300D01*
X152500Y693000D02*X154300D01*
X156200Y692200D02*X157000Y693000D01*
Y689000D01*
X156200D02*X157700D01*
X152500Y683000D02*Y679000D01*
X153800Y683000D02*X154500Y682300D01*
Y679700D01*
X153800Y679000D02*X154500Y679700D01*
X152000Y679000D02*X153800D01*
X152000Y683000D02*X153800D01*
X155700Y682500D02*X156200Y683000D01*
X157200D01*
X157700Y682500D01*
X157200Y679000D02*X157700Y679500D01*
X156200Y679000D02*X157200D01*
X155700Y679500D02*X156200Y679000D01*
Y681200D02*X157200D01*
X157700Y682500D02*Y681700D01*
Y680700D02*Y679500D01*
Y680700D02*X157200Y681200D01*
X157700Y681700D02*X157200Y681200D01*
X152500Y673000D02*Y669000D01*
X153800Y673000D02*X154500Y672300D01*
Y669700D01*
X153800Y669000D02*X154500Y669700D01*
X152000Y669000D02*X153800D01*
X152000Y673000D02*X153800D01*
X155700D02*X157700D01*
X155700D02*Y671000D01*
X156200Y671500D01*
X157200D01*
X157700Y671000D01*
Y669500D01*
X157200Y669000D02*X157700Y669500D01*
X156200Y669000D02*X157200D01*
X155700Y669500D02*X156200Y669000D01*
X152000Y663000D02*Y659000D01*
X153300Y663000D02*X154000Y662300D01*
Y659700D01*
X153300Y659000D02*X154000Y659700D01*
X151500Y659000D02*X153300D01*
X151500Y663000D02*X153300D01*
X155700Y659000D02*X157700Y663000D01*
X155200D02*X157700D01*
X147000Y653000D02*X148000D01*
X147500D02*Y649000D01*
X147000D02*X148000D01*
X149200Y653000D02*Y649000D01*
Y653000D02*X151700Y649000D01*
Y653000D02*Y649000D01*
X152900Y653000D02*X154900D01*
X153900D02*Y649000D01*
X156100Y652200D02*X156900Y653000D01*
Y649000D01*
X156100D02*X157600D01*
X190000Y653000D02*X191000D01*
X190500D02*Y649000D01*
X190000D02*X191000D01*
X192200Y653000D02*Y649000D01*
Y653000D02*X194700Y649000D01*
Y653000D02*Y649000D01*
X195900Y653000D02*X197900D01*
X196900D02*Y649000D01*
X199100Y649500D02*X199600Y649000D01*
X199100Y652500D02*Y649500D01*
Y652500D02*X199600Y653000D01*
X200600D01*
X201100Y652500D01*
Y649500D01*
X200600Y649000D02*X201100Y649500D01*
X199600Y649000D02*X200600D01*
X199100Y650000D02*X201100Y652000D01*
X372000Y667000D02*X375500D01*
X376000Y667500D01*
Y668500D01*
X375500Y669000D01*
X372000D02*X375500D01*
Y670200D02*X376000Y670700D01*
X372500Y670200D02*X375500D01*
X372500D02*X372000Y670700D01*
Y671700D01*
X372500Y672200D01*
X375500D01*
X376000Y671700D02*X375500Y672200D01*
X376000Y670700D02*Y671700D01*
X375000Y670200D02*X373000Y672200D01*
X190000Y633000D02*X191000D01*
X190500D02*Y629000D01*
X190000D02*X191000D01*
X192200Y633000D02*Y629000D01*
Y633000D02*X194700Y629000D01*
Y633000D02*Y629000D01*
X195900Y633000D02*X197900D01*
X196900D02*Y629000D01*
X199100Y630500D02*X201100Y633000D01*
X199100Y630500D02*X201600D01*
X201100Y633000D02*Y629000D01*
X190000Y643000D02*X191000D01*
X190500D02*Y639000D01*
X190000D02*X191000D01*
X192200Y643000D02*Y639000D01*
Y643000D02*X194700Y639000D01*
Y643000D02*Y639000D01*
X195900Y643000D02*X197900D01*
X196900D02*Y639000D01*
X199100Y642500D02*X199600Y643000D01*
X201100D01*
X201600Y642500D01*
Y641500D01*
X199100Y639000D02*X201600Y641500D01*
X199100Y639000D02*X201600D01*
X190500Y663000D02*Y659000D01*
X191800Y663000D02*X192500Y662300D01*
Y659700D01*
X191800Y659000D02*X192500Y659700D01*
X190000Y659000D02*X191800D01*
X190000Y663000D02*X191800D01*
X195200D02*X195700Y662500D01*
X194200Y663000D02*X195200D01*
X193700Y662500D02*X194200Y663000D01*
X193700Y662500D02*Y659500D01*
X194200Y659000D01*
X195200Y661200D02*X195700Y660700D01*
X193700Y661200D02*X195200D01*
X194200Y659000D02*X195200D01*
X195700Y659500D01*
Y660700D02*Y659500D01*
X190500Y673000D02*Y669000D01*
X191800Y673000D02*X192500Y672300D01*
Y669700D01*
X191800Y669000D02*X192500Y669700D01*
X190000Y669000D02*X191800D01*
X190000Y673000D02*X191800D01*
X193700Y670500D02*X195700Y673000D01*
X193700Y670500D02*X196200D01*
X195700Y673000D02*Y669000D01*
X190500Y683000D02*Y679000D01*
X191800Y683000D02*X192500Y682300D01*
Y679700D01*
X191800Y679000D02*X192500Y679700D01*
X190000Y679000D02*X191800D01*
X190000Y683000D02*X191800D01*
X193700Y682500D02*X194200Y683000D01*
X195700D01*
X196200Y682500D01*
Y681500D01*
X193700Y679000D02*X196200Y681500D01*
X193700Y679000D02*X196200D01*
X190500Y693000D02*Y689000D01*
X191800Y693000D02*X192500Y692300D01*
Y689700D01*
X191800Y689000D02*X192500Y689700D01*
X190000Y689000D02*X191800D01*
X190000Y693000D02*X191800D01*
X193700Y689500D02*X194200Y689000D01*
X193700Y692500D02*Y689500D01*
Y692500D02*X194200Y693000D01*
X195200D01*
X195700Y692500D01*
Y689500D01*
X195200Y689000D02*X195700Y689500D01*
X194200Y689000D02*X195200D01*
X193700Y690000D02*X195700Y692000D01*
X190000Y703000D02*X192000D01*
X191000D02*Y699000D01*
X193200D02*X195700Y703000D01*
X193200D02*X195700Y699000D01*
X190000Y713000D02*Y709000D01*
Y713000D02*X192000D01*
X190000Y711200D02*X191500D01*
X193200Y712000D02*Y709000D01*
Y712000D02*X193900Y713000D01*
X195000D01*
X195700Y712000D01*
Y709000D01*
X193200Y711000D02*X195700D01*
X196900Y713000D02*Y709500D01*
X197400Y709000D01*
X198400D01*
X198900Y709500D01*
Y713000D02*Y709500D01*
X200100Y713000D02*Y709000D01*
X202100D01*
X203300Y713000D02*X205300D01*
X204300D02*Y709000D01*
X147000Y723000D02*X149000D01*
X149500Y722500D01*
Y721500D01*
X149000Y721000D02*X149500Y721500D01*
X147500Y721000D02*X149000D01*
X147500Y723000D02*Y719000D01*
X148300Y721000D02*X149500Y719000D01*
X150700Y719500D02*X153700Y722500D01*
X154900Y723000D02*Y721000D01*
X155400Y719000D01*
X156400Y721000D01*
X157400Y719000D01*
X157900Y721000D01*
Y723000D01*
X190700Y719000D02*X192000D01*
X190000Y719700D02*X190700Y719000D01*
X190000Y722300D02*Y719700D01*
Y722300D02*X190700Y723000D01*
X192000D01*
X193200D02*Y719000D01*
X195200D01*
X196400Y722500D02*Y719500D01*
Y722500D02*X196900Y723000D01*
X197900D01*
X198400Y722500D01*
Y719500D01*
X197900Y719000D02*X198400Y719500D01*
X196900Y719000D02*X197900D01*
X196400Y719500D02*X196900Y719000D01*
X200300D02*X201600D01*
X199600Y719700D02*X200300Y719000D01*
X199600Y722300D02*Y719700D01*
Y722300D02*X200300Y723000D01*
X201600D01*
X202800D02*Y719000D01*
Y721000D02*X204800Y723000D01*
X202800Y721000D02*X204800Y719000D01*
X90500Y738300D02*Y737000D01*
X91200Y739000D02*X90500Y738300D01*
X93800Y739000D02*X91200D01*
X93800D02*X94500Y738300D01*
Y737000D01*
X94000Y735800D02*X91000D01*
X94000D02*X94500Y735300D01*
Y734300D01*
X94000Y733800D01*
X91000D01*
X90500Y734300D02*X91000Y733800D01*
X90500Y735300D02*Y734300D01*
X91000Y735800D02*X90500Y735300D01*
X94500Y732600D02*X90500D01*
X94500D02*X90500Y730100D01*
X94500D02*X90500D01*
X94500Y728900D02*X90500D01*
X94500D02*X90500Y726400D01*
X94500D02*X90500D01*
X93700Y725200D02*X94500Y724400D01*
X90500D01*
Y725200D02*Y723700D01*
X162000Y735300D02*Y734000D01*
X162700Y736000D02*X162000Y735300D01*
X165300Y736000D02*X162700D01*
X165300D02*X166000Y735300D01*
Y734000D01*
X165500Y732800D02*X162500D01*
X165500D02*X166000Y732300D01*
Y731300D01*
X165500Y730800D01*
X162500D01*
X162000Y731300D02*X162500Y730800D01*
X162000Y732300D02*Y731300D01*
X162500Y732800D02*X162000Y732300D01*
X166000Y729600D02*X162000D01*
X166000D02*X162000Y727100D01*
X166000D02*X162000D01*
X166000Y725900D02*X162000D01*
X166000D02*X162000Y723400D01*
X166000D02*X162000D01*
X165500Y722200D02*X166000Y721700D01*
Y720700D01*
X165500Y720200D01*
X162000Y720700D02*X162500Y720200D01*
X162000Y721700D02*Y720700D01*
X162500Y722200D02*X162000Y721700D01*
X164200D02*Y720700D01*
X165500Y720200D02*X164700D01*
X163700D02*X162500D01*
X163700D02*X164200Y720700D01*
X164700Y720200D02*X164200Y720700D01*
M02*
