G04 start of page 2 for group 12 layer_idx 7 *
G04 Title: (unknown), bottom_silk *
G04 Creator: pcb-rnd 2.3.2 *
G04 CreationDate: 2021-07-12 19:07:32 UTC *
G04 For:  *
G04 Format: Gerber/RS-274X *
G04 PCB-Dimensions: 1000000 1000000 *
G04 PCB-Coordinate-Origin: lower left *
%MOIN*%
%FSLAX25Y25*%
%LNBOTTOM_SILK_NONE_12*%
%ADD87C,0.0070*%
%ADD86C,0.0080*%
G54D86*X244638Y892260D02*X249362D01*
X244638Y899740D02*X249362D01*
X244638Y920260D02*X249362D01*
X244638Y927740D02*X249362D01*
G54D87*X164000Y703000D02*X162000D01*
X161500Y702500D01*
Y701500D01*
X162000Y701000D02*X161500Y701500D01*
X163500Y701000D02*X162000D01*
X163500Y703000D02*Y699000D01*
X162700Y701000D02*X161500Y699000D01*
X160300D02*X157800Y703000D01*
X160300D02*X157800Y699000D01*
X163500Y693000D02*Y689000D01*
X162200Y693000D02*X161500Y692300D01*
Y689700D01*
X162200Y689000D02*X161500Y689700D01*
X164000Y689000D02*X162200D01*
X164000Y693000D02*X162200D01*
X160300Y692200D02*X159500Y693000D01*
Y689000D01*
X160300D02*X158800D01*
X163500Y683000D02*Y679000D01*
X162200Y683000D02*X161500Y682300D01*
Y679700D01*
X162200Y679000D02*X161500Y679700D01*
X164000Y679000D02*X162200D01*
X164000Y683000D02*X162200D01*
X160300Y682500D02*X159800Y683000D01*
X158800D01*
X158300Y682500D01*
X158800Y679000D02*X158300Y679500D01*
X159800Y679000D02*X158800D01*
X160300Y679500D02*X159800Y679000D01*
Y681200D02*X158800D01*
X158300Y682500D02*Y681700D01*
Y680700D02*Y679500D01*
Y680700D02*X158800Y681200D01*
X158300Y681700D02*X158800Y681200D01*
X164000Y643000D02*X163000D01*
X163500D02*Y639000D01*
X164000D02*X163000D01*
X161800Y643000D02*Y639000D01*
Y643000D02*X159300Y639000D01*
Y643000D02*Y639000D01*
X158100Y643000D02*X156100D01*
X157100D02*Y639000D01*
X154900Y642500D02*X154400Y643000D01*
X153400D01*
X152900Y642500D01*
X153400Y639000D02*X152900Y639500D01*
X154400Y639000D02*X153400D01*
X154900Y639500D02*X154400Y639000D01*
Y641200D02*X153400D01*
X152900Y642500D02*Y641700D01*
Y640700D02*Y639500D01*
Y640700D02*X153400Y641200D01*
X152900Y641700D02*X153400Y641200D01*
X164000Y632000D02*Y629000D01*
Y632000D02*X163300Y633000D01*
X162200D01*
X161500Y632000D01*
Y629000D01*
X164000Y631000D02*X161500D01*
X160300Y630500D02*X158300Y633000D01*
X160300Y630500D02*X157800D01*
X158300Y633000D02*Y629000D01*
X164000Y653000D02*X163000D01*
X163500D02*Y649000D01*
X164000D02*X163000D01*
X161800Y653000D02*Y649000D01*
Y653000D02*X159300Y649000D01*
Y653000D02*Y649000D01*
X158100Y653000D02*X156100D01*
X157100D02*Y649000D01*
X154900Y652200D02*X154100Y653000D01*
Y649000D01*
X154900D02*X153400D01*
X163500Y663000D02*Y659000D01*
X162200Y663000D02*X161500Y662300D01*
Y659700D01*
X162200Y659000D02*X161500Y659700D01*
X164000Y659000D02*X162200D01*
X164000Y663000D02*X162200D01*
X159800Y659000D02*X157800Y663000D01*
X160300D02*X157800D01*
X163500Y673000D02*Y669000D01*
X162200Y673000D02*X161500Y672300D01*
Y669700D01*
X162200Y669000D02*X161500Y669700D01*
X164000Y669000D02*X162200D01*
X164000Y673000D02*X162200D01*
X160300D02*X158300D01*
X160300D02*Y671000D01*
X159800Y671500D01*
X158800D01*
X158300Y671000D01*
Y669500D01*
X158800Y669000D02*X158300Y669500D01*
X159800Y669000D02*X158800D01*
X160300Y669500D02*X159800Y669000D01*
X204000Y663000D02*Y659000D01*
X202700Y663000D02*X202000Y662300D01*
Y659700D01*
X202700Y659000D02*X202000Y659700D01*
X204500Y659000D02*X202700D01*
X204500Y663000D02*X202700D01*
X199300D02*X198800Y662500D01*
X200300Y663000D02*X199300D01*
X200800Y662500D02*X200300Y663000D01*
X200800Y662500D02*Y659500D01*
X200300Y659000D01*
X199300Y661200D02*X198800Y660700D01*
X200800Y661200D02*X199300D01*
X200300Y659000D02*X199300D01*
X198800Y659500D01*
Y660700D02*Y659500D01*
X204500Y633000D02*X203500D01*
X204000D02*Y629000D01*
X204500D02*X203500D01*
X202300Y633000D02*Y629000D01*
Y633000D02*X199800Y629000D01*
Y633000D02*Y629000D01*
X198600Y633000D02*X196600D01*
X197600D02*Y629000D01*
X195400Y630500D02*X193400Y633000D01*
X195400Y630500D02*X192900D01*
X193400Y633000D02*Y629000D01*
X204500Y643000D02*X203500D01*
X204000D02*Y639000D01*
X204500D02*X203500D01*
X202300Y643000D02*Y639000D01*
Y643000D02*X199800Y639000D01*
Y643000D02*Y639000D01*
X198600Y643000D02*X196600D01*
X197600D02*Y639000D01*
X195400Y642500D02*X194900Y643000D01*
X193400D01*
X192900Y642500D01*
Y641500D01*
X195400Y639000D02*X192900Y641500D01*
X195400Y639000D02*X192900D01*
X204500Y653000D02*X203500D01*
X204000D02*Y649000D01*
X204500D02*X203500D01*
X202300Y653000D02*Y649000D01*
Y653000D02*X199800Y649000D01*
Y653000D02*Y649000D01*
X198600Y653000D02*X196600D01*
X197600D02*Y649000D01*
X195400Y649500D02*X194900Y649000D01*
X195400Y652500D02*Y649500D01*
Y652500D02*X194900Y653000D01*
X193900D01*
X193400Y652500D01*
Y649500D01*
X193900Y649000D02*X193400Y649500D01*
X194900Y649000D02*X193900D01*
X195400Y650000D02*X193400Y652000D01*
X204500Y612000D02*Y609000D01*
Y612000D02*X203800Y613000D01*
X202700D01*
X202000Y612000D01*
Y609000D01*
X204500Y611000D02*X202000D01*
X200800Y609500D02*X200300Y609000D01*
X200800Y612500D02*Y609500D01*
Y612500D02*X200300Y613000D01*
X199300D01*
X198800Y612500D01*
Y609500D01*
X199300Y609000D02*X198800Y609500D01*
X200300Y609000D02*X199300D01*
X200800Y610000D02*X198800Y612000D01*
X204500Y622000D02*Y619000D01*
Y622000D02*X203800Y623000D01*
X202700D01*
X202000Y622000D01*
Y619000D01*
X204500Y621000D02*X202000D01*
X200800Y622500D02*X200300Y623000D01*
X198800D01*
X198300Y622500D01*
Y621500D01*
X200800Y619000D02*X198300Y621500D01*
X200800Y619000D02*X198300D01*
X202500Y603000D02*X202000Y602500D01*
X204000Y603000D02*X202500D01*
X204500Y602500D02*X204000Y603000D01*
X204500Y602500D02*Y601500D01*
X204000Y601000D01*
X202500D01*
X202000Y600500D01*
Y599500D01*
X202500Y599000D02*X202000Y599500D01*
X204000Y599000D02*X202500D01*
X204500Y599500D02*X204000Y599000D01*
X200800Y603000D02*X199800Y601000D01*
X198800Y603000D01*
X199800Y601000D02*Y599000D01*
X197600Y603000D02*Y599000D01*
Y603000D02*X195100Y599000D01*
Y603000D02*Y599000D01*
X193200D02*X191900D01*
X193900Y599700D02*X193200Y599000D01*
X193900Y602300D02*Y599700D01*
Y602300D02*X193200Y603000D01*
X191900D01*
X190200D02*Y599000D01*
X190700Y603000D02*X188700D01*
X188200Y602500D01*
Y601500D01*
X188700Y601000D02*X188200Y601500D01*
X190200Y601000D02*X188700D01*
X204000Y673000D02*Y669000D01*
X202700Y673000D02*X202000Y672300D01*
Y669700D01*
X202700Y669000D02*X202000Y669700D01*
X204500Y669000D02*X202700D01*
X204500Y673000D02*X202700D01*
X200800Y670500D02*X198800Y673000D01*
X200800Y670500D02*X198300D01*
X198800Y673000D02*Y669000D01*
X205500Y909500D02*X205000Y910000D01*
X203500D01*
X203000Y909500D01*
Y908500D01*
X205500Y906000D02*X203000Y908500D01*
X205500Y906000D02*X203000D01*
X201800Y906500D02*X201300Y906000D01*
X201800Y909500D02*Y906500D01*
Y909500D02*X201300Y910000D01*
X200300D01*
X199800Y909500D01*
Y906500D01*
X200300Y906000D02*X199800Y906500D01*
X201300Y906000D02*X200300D01*
X201800Y907000D02*X199800Y909000D01*
X198600Y909200D02*X197800Y910000D01*
Y906000D01*
X198600D02*X197100D01*
X195900Y907500D02*X193900Y910000D01*
X195900Y907500D02*X193400D01*
X193900Y910000D02*Y906000D01*
X192200D02*X191700D01*
X190500Y909200D02*X189700Y910000D01*
Y906000D01*
X190500D02*X189000D01*
X187800Y909500D02*X187300Y910000D01*
X185800D01*
X185300Y909500D01*
Y908500D01*
X187800Y906000D02*X185300Y908500D01*
X187800Y906000D02*X185300D01*
X184100D02*X183600D01*
X182400Y909200D02*X181600Y910000D01*
Y906000D01*
X182400D02*X180900D01*
X179200D02*X177700Y908000D01*
Y909500D02*Y908000D01*
X178200Y910000D02*X177700Y909500D01*
X179200Y910000D02*X178200D01*
X179700Y909500D02*X179200Y910000D01*
X179700Y909500D02*Y908500D01*
X179200Y908000D01*
X177700D01*
X205500Y861000D02*X203500D01*
X202300Y862200D02*X201500Y863000D01*
Y859000D01*
X202300D02*X200800D01*
X199100D02*X197100Y863000D01*
X199600D02*X197100D01*
X195900D02*X194900Y859000D01*
X193900Y863000D01*
X204800Y869000D02*X203500D01*
X205500Y869700D02*X204800Y869000D01*
X205500Y872300D02*Y869700D01*
Y872300D02*X204800Y873000D01*
X203500D01*
X202300Y872500D02*Y869500D01*
Y872500D02*X201800Y873000D01*
X200800D01*
X200300Y872500D01*
Y869500D01*
X200800Y869000D02*X200300Y869500D01*
X201800Y869000D02*X200800D01*
X202300Y869500D02*X201800Y869000D01*
X199100Y873000D02*Y869000D01*
Y873000D02*X197600Y871000D01*
X196100Y873000D01*
Y869000D01*
X194900Y873000D02*Y869000D01*
Y873000D02*X193400Y871000D01*
X191900Y873000D01*
Y869000D01*
X190700Y872500D02*Y869500D01*
Y872500D02*X190200Y873000D01*
X189200D01*
X188700Y872500D01*
Y869500D01*
X189200Y869000D02*X188700Y869500D01*
X190200Y869000D02*X189200D01*
X190700Y869500D02*X190200Y869000D01*
X187500Y873000D02*Y869000D01*
Y873000D02*X185000Y869000D01*
Y873000D02*Y869000D01*
X204800Y879000D02*X203500D01*
X205500Y879700D02*X204800Y879000D01*
X205500Y882300D02*Y879700D01*
Y882300D02*X204800Y883000D01*
X203500D01*
X202300D02*Y879000D01*
X199800Y883000D02*Y879000D01*
X202300Y881000D02*X199800D01*
X198600Y882000D02*Y879000D01*
Y882000D02*X197900Y883000D01*
X196800D01*
X196100Y882000D01*
Y879000D01*
X198600Y881000D02*X196100D01*
X192900Y883000D02*X192400Y882500D01*
X194400Y883000D02*X192900D01*
X194900Y882500D02*X194400Y883000D01*
X194900Y882500D02*Y881500D01*
X194400Y881000D01*
X192900D01*
X192400Y880500D01*
Y879500D01*
X192900Y879000D02*X192400Y879500D01*
X194400Y879000D02*X192900D01*
X194900Y879500D02*X194400Y879000D01*
X189200Y883000D02*X188700Y882500D01*
X190700Y883000D02*X189200D01*
X191200Y882500D02*X190700Y883000D01*
X191200Y882500D02*Y881500D01*
X190700Y881000D01*
X189200D01*
X188700Y880500D01*
Y879500D01*
X189200Y879000D02*X188700Y879500D01*
X190700Y879000D02*X189200D01*
X191200Y879500D02*X190700Y879000D01*
X187500Y883000D02*X186500D01*
X187000D02*Y879000D01*
X187500D02*X186500D01*
X183300Y883000D02*X182800Y882500D01*
X184800Y883000D02*X183300D01*
X185300Y882500D02*X184800Y883000D01*
X185300Y882500D02*Y881500D01*
X184800Y881000D01*
X183300D01*
X182800Y880500D01*
Y879500D01*
X183300Y879000D02*X182800Y879500D01*
X184800Y879000D02*X183300D01*
X185300Y879500D02*X184800Y879000D01*
X205500Y831000D02*X203500D01*
X204500Y832000D02*Y830000D01*
X202300Y832200D02*X201500Y833000D01*
Y829000D01*
X202300D02*X200800D01*
X199100D02*X197100Y833000D01*
X199600D02*X197100D01*
X195900D02*X194900Y829000D01*
X193900Y833000D01*
X205500Y841000D02*X203500D01*
X204500Y842000D02*Y840000D01*
X202300Y842200D02*X201500Y843000D01*
Y839000D01*
X202300D02*X200800D01*
X199600Y843000D02*X197600D01*
X199600D02*Y841000D01*
X199100Y841500D01*
X198100D01*
X197600Y841000D01*
Y839500D01*
X198100Y839000D02*X197600Y839500D01*
X199100Y839000D02*X198100D01*
X199600Y839500D02*X199100Y839000D01*
X196400Y843000D02*X195400Y839000D01*
X194400Y843000D01*
X205500Y851000D02*X203500D01*
X202300Y852200D02*X201500Y853000D01*
Y849000D01*
X202300D02*X200800D01*
X199600Y853000D02*X197600D01*
X199600D02*Y851000D01*
X199100Y851500D01*
X198100D01*
X197600Y851000D01*
Y849500D01*
X198100Y849000D02*X197600Y849500D01*
X199100Y849000D02*X198100D01*
X199600Y849500D02*X199100Y849000D01*
X196400Y853000D02*X195400Y849000D01*
X194400Y853000D01*
X205500Y795500D02*X203500D01*
X204500Y796500D02*Y794500D01*
X202300Y797500D02*X200300D01*
X202300D02*Y795500D01*
X201800Y796000D01*
X200800D01*
X200300Y795500D01*
Y794000D01*
X200800Y793500D02*X200300Y794000D01*
X201800Y793500D02*X200800D01*
X202300Y794000D02*X201800Y793500D01*
X199100Y797500D02*X198100Y793500D01*
X197100Y797500D01*
X195400D02*Y793500D01*
X194100Y797500D02*X193400Y796800D01*
Y794200D01*
X194100Y793500D02*X193400Y794200D01*
X195900Y793500D02*X194100D01*
X195900Y797500D02*X194100D01*
X203500Y787500D02*X203000Y787000D01*
X205000Y787500D02*X203500D01*
X205500Y787000D02*X205000Y787500D01*
X205500Y787000D02*Y784000D01*
X205000Y783500D01*
X203500D01*
X203000Y784000D01*
Y785000D02*Y784000D01*
X203500Y785500D02*X203000Y785000D01*
X204500Y785500D02*X203500D01*
X201800Y787500D02*Y783500D01*
Y787500D02*X199300Y783500D01*
Y787500D02*Y783500D01*
X197600Y787500D02*Y783500D01*
X196300Y787500D02*X195600Y786800D01*
Y784200D01*
X196300Y783500D02*X195600Y784200D01*
X198100Y783500D02*X196300D01*
X198100Y787500D02*X196300D01*
X193900D02*Y783500D01*
X192600Y787500D02*X191900Y786800D01*
Y784200D01*
X192600Y783500D02*X191900Y784200D01*
X194400Y783500D02*X192600D01*
X194400Y787500D02*X192600D01*
X205500Y775500D02*X203500D01*
X204500Y776500D02*Y774500D01*
X202300Y776700D02*X201500Y777500D01*
Y773500D01*
X202300D02*X200800D01*
X199600Y777000D02*X199100Y777500D01*
X197600D01*
X197100Y777000D01*
Y776000D01*
X199600Y773500D02*X197100Y776000D01*
X199600Y773500D02*X197100D01*
X195900Y777500D02*X194900Y773500D01*
X193900Y777500D01*
X192200D02*Y773500D01*
X190900Y777500D02*X190200Y776800D01*
Y774200D01*
X190900Y773500D02*X190200Y774200D01*
X192700Y773500D02*X190900D01*
X192700Y777500D02*X190900D01*
X175500Y795000D02*Y793500D01*
Y795000D02*X175000Y795500D01*
X174000D01*
X176000D02*X175500Y795000D01*
X172300Y793500D02*X170800D01*
X172800Y794000D02*X172300Y793500D01*
X172800Y795000D02*Y794000D01*
Y795000D02*X172300Y795500D01*
X171300D01*
X170800Y795000D01*
X172800Y794500D02*X170800D01*
Y795000D01*
X167600Y797500D02*Y793500D01*
X168100D02*X167600Y794000D01*
X169100Y793500D02*X168100D01*
X169600Y794000D02*X169100Y793500D01*
X169600Y795000D02*Y794000D01*
Y795000D02*X169100Y795500D01*
X168100D01*
X167600Y795000D01*
X180500Y787500D02*Y783500D01*
Y784000D02*X180000Y783500D01*
X179000D01*
X178500Y784000D01*
Y785000D02*Y784000D01*
X179000Y785500D02*X178500Y785000D01*
X180000Y785500D02*X179000D01*
X180500Y785000D02*X180000Y785500D01*
X177300Y787500D02*Y784000D01*
X176800Y783500D01*
X174300Y785500D02*X173800Y785000D01*
X175300Y785500D02*X174300D01*
X175800Y785000D02*X175300Y785500D01*
X175800Y785000D02*Y784000D01*
X175300Y783500D01*
X173800Y785500D02*Y784000D01*
X173300Y783500D01*
X175300D02*X174300D01*
X173800Y784000D01*
X171600Y785500D02*X170100D01*
X172100Y785000D02*X171600Y785500D01*
X172100Y785000D02*Y784000D01*
X171600Y783500D01*
X170100D01*
X168900Y787500D02*Y783500D01*
Y785000D02*X167400Y783500D01*
X168900Y785000D02*X167900Y786000D01*
X184000Y775000D02*Y772000D01*
X184500Y775500D02*X184000Y775000D01*
X183500Y775500D01*
X182500D01*
X182000Y775000D01*
Y774000D01*
X182500Y773500D02*X182000Y774000D01*
X183500Y773500D02*X182500D01*
X184000Y774000D02*X183500Y773500D01*
X180800Y775500D02*Y774000D01*
X180300Y773500D01*
X179300D01*
X178800Y774000D01*
Y775500D02*Y774000D01*
X177100Y775000D02*Y773500D01*
Y775000D02*X176600Y775500D01*
X175600D01*
X177600D02*X177100Y775000D01*
X173900D02*Y772000D01*
X174400Y775500D02*X173900Y775000D01*
X173400Y775500D01*
X172400D01*
X171900Y775000D01*
Y774000D01*
X172400Y773500D02*X171900Y774000D01*
X173400Y773500D02*X172400D01*
X173900Y774000D02*X173400Y773500D01*
X170700Y777500D02*Y774000D01*
X170200Y773500D01*
X168700D02*X167200D01*
X169200Y774000D02*X168700Y773500D01*
X169200Y775000D02*Y774000D01*
Y775000D02*X168700Y775500D01*
X167700D01*
X167200Y775000D01*
X169200Y774500D02*X167200D01*
Y775000D01*
X204500Y713000D02*Y709000D01*
Y713000D02*X202500D01*
X204500Y711200D02*X203000D01*
X201300Y712000D02*Y709000D01*
Y712000D02*X200600Y713000D01*
X199500D01*
X198800Y712000D01*
Y709000D01*
X201300Y711000D02*X198800D01*
X197600Y713000D02*Y709500D01*
X197100Y709000D01*
X196100D01*
X195600Y709500D01*
Y713000D02*Y709500D01*
X194400Y713000D02*Y709000D01*
X192400D01*
X191200Y713000D02*X189200D01*
X190200D02*Y709000D01*
X203800Y719000D02*X202500D01*
X204500Y719700D02*X203800Y719000D01*
X204500Y722300D02*Y719700D01*
Y722300D02*X203800Y723000D01*
X202500D01*
X201300D02*Y719000D01*
X199300D01*
X198100Y722500D02*Y719500D01*
Y722500D02*X197600Y723000D01*
X196600D01*
X196100Y722500D01*
Y719500D01*
X196600Y719000D02*X196100Y719500D01*
X197600Y719000D02*X196600D01*
X198100Y719500D02*X197600Y719000D01*
X194200D02*X192900D01*
X194900Y719700D02*X194200Y719000D01*
X194900Y722300D02*Y719700D01*
Y722300D02*X194200Y723000D01*
X192900D01*
X191700D02*Y719000D01*
Y721000D02*X189700Y723000D01*
X191700Y721000D02*X189700Y719000D01*
X202500Y733000D02*X202000Y732500D01*
X204000Y733000D02*X202500D01*
X204500Y732500D02*X204000Y733000D01*
X204500Y732500D02*Y729500D01*
X204000Y729000D01*
X202500D01*
X202000Y729500D01*
Y730500D02*Y729500D01*
X202500Y731000D02*X202000Y730500D01*
X203500Y731000D02*X202500D01*
X200800Y733000D02*Y729000D01*
Y733000D02*X198300Y729000D01*
Y733000D02*Y729000D01*
X196600Y733000D02*Y729000D01*
X195300Y733000D02*X194600Y732300D01*
Y729700D01*
X195300Y729000D02*X194600Y729700D01*
X197100Y729000D02*X195300D01*
X197100Y733000D02*X195300D01*
X192900D02*Y729000D01*
X191600Y733000D02*X190900Y732300D01*
Y729700D01*
X191600Y729000D02*X190900Y729700D01*
X193400Y729000D02*X191600D01*
X193400Y733000D02*X191600D01*
X204000Y683000D02*Y679000D01*
X202700Y683000D02*X202000Y682300D01*
Y679700D01*
X202700Y679000D02*X202000Y679700D01*
X204500Y679000D02*X202700D01*
X204500Y683000D02*X202700D01*
X200800Y682500D02*X200300Y683000D01*
X198800D01*
X198300Y682500D01*
Y681500D01*
X200800Y679000D02*X198300Y681500D01*
X200800Y679000D02*X198300D01*
X204000Y693000D02*Y689000D01*
X202700Y693000D02*X202000Y692300D01*
Y689700D01*
X202700Y689000D02*X202000Y689700D01*
X204500Y689000D02*X202700D01*
X204500Y693000D02*X202700D01*
X200800Y689500D02*X200300Y689000D01*
X200800Y692500D02*Y689500D01*
Y692500D02*X200300Y693000D01*
X199300D01*
X198800Y692500D01*
Y689500D01*
X199300Y689000D02*X198800Y689500D01*
X200300Y689000D02*X199300D01*
X200800Y690000D02*X198800Y692000D01*
X204500Y703000D02*X202500D01*
X203500D02*Y699000D01*
X201300D02*X198800Y703000D01*
X201300D02*X198800Y699000D01*
X205000Y923000D02*Y919000D01*
X203700Y923000D02*X203000Y922300D01*
Y919700D01*
X203700Y919000D02*X203000Y919700D01*
X205500Y919000D02*X203700D01*
X205500Y923000D02*X203700D01*
X201800Y921200D02*X200300D01*
X201800Y919000D02*X199800D01*
X201800Y923000D02*Y919000D01*
Y923000D02*X199800D01*
X196600D02*X196100Y922500D01*
X198100Y923000D02*X196600D01*
X198600Y922500D02*X198100Y923000D01*
X198600Y922500D02*Y921500D01*
X198100Y921000D01*
X196600D01*
X196100Y920500D01*
Y919500D01*
X196600Y919000D02*X196100Y919500D01*
X198100Y919000D02*X196600D01*
X198600Y919500D02*X198100Y919000D01*
X194900Y923000D02*X193900D01*
X194400D02*Y919000D01*
X194900D02*X193900D01*
X190700Y923000D02*X190200Y922500D01*
X192200Y923000D02*X190700D01*
X192700Y922500D02*X192200Y923000D01*
X192700Y922500D02*Y919500D01*
X192200Y919000D01*
X190700D01*
X190200Y919500D01*
Y920500D02*Y919500D01*
X190700Y921000D02*X190200Y920500D01*
X191700Y921000D02*X190700D01*
X189000Y923000D02*Y919000D01*
Y923000D02*X186500Y919000D01*
Y923000D02*Y919000D01*
X185300Y921200D02*X183800D01*
X185300Y919000D02*X183300D01*
X185300Y923000D02*Y919000D01*
Y923000D02*X183300D01*
X181600D02*Y919000D01*
X180300Y923000D02*X179600Y922300D01*
Y919700D01*
X180300Y919000D02*X179600Y919700D01*
X182100Y919000D02*X180300D01*
X182100Y923000D02*X180300D01*
X176600Y919000D02*X174600D01*
X174100Y919500D01*
Y920700D02*Y919500D01*
X174600Y921200D02*X174100Y920700D01*
X176100Y921200D02*X174600D01*
X176100Y923000D02*Y919000D01*
X176600Y923000D02*X174600D01*
X174100Y922500D01*
Y921700D01*
X174600Y921200D02*X174100Y921700D01*
X172900Y923000D02*X171900Y921000D01*
X170900Y923000D01*
X171900Y921000D02*Y919000D01*
X167900Y921200D02*X166400D01*
X167900Y919000D02*X165900D01*
X167900Y923000D02*Y919000D01*
Y923000D02*X165900D01*
X164700D02*X163700Y919000D01*
X162700Y923000D01*
X161500Y922000D02*Y919000D01*
Y922000D02*X160800Y923000D01*
X159700D01*
X159000Y922000D01*
Y919000D01*
X161500Y921000D02*X159000D01*
X157800Y923000D02*Y919000D01*
Y923000D02*X155300Y919000D01*
Y923000D02*Y919000D01*
X152300Y923000D02*Y919000D01*
Y923000D02*X150300D01*
X152300Y921200D02*X150800D01*
X149100Y922500D02*Y919500D01*
Y922500D02*X148600Y923000D01*
X147600D01*
X147100Y922500D01*
Y919500D01*
X147600Y919000D02*X147100Y919500D01*
X148600Y919000D02*X147600D01*
X149100Y919500D02*X148600Y919000D01*
X143900Y923000D02*X143400Y922500D01*
X145400Y923000D02*X143900D01*
X145900Y922500D02*X145400Y923000D01*
X145900Y922500D02*Y921500D01*
X145400Y921000D01*
X143900D01*
X143400Y920500D01*
Y919500D01*
X143900Y919000D02*X143400Y919500D01*
X145400Y919000D02*X143900D01*
X145900Y919500D02*X145400Y919000D01*
X140200Y923000D02*X139700Y922500D01*
X141700Y923000D02*X140200D01*
X142200Y922500D02*X141700Y923000D01*
X142200Y922500D02*Y921500D01*
X141700Y921000D01*
X140200D01*
X139700Y920500D01*
Y919500D01*
X140200Y919000D02*X139700Y919500D01*
X141700Y919000D02*X140200D01*
X142200Y919500D02*X141700Y919000D01*
X203500Y929500D02*X203000Y929000D01*
X205000Y929500D02*X203500D01*
X205500Y929000D02*X205000Y929500D01*
X205500Y929000D02*Y928000D01*
X205000Y927500D01*
X203500D01*
X203000Y927000D01*
Y926000D01*
X203500Y925500D02*X203000Y926000D01*
X205000Y925500D02*X203500D01*
X205500Y926000D02*X205000Y925500D01*
X201800Y929500D02*Y926000D01*
X201300Y925500D01*
X200300D01*
X199800Y926000D01*
Y929500D02*Y926000D01*
X198600Y925500D02*X196600D01*
X196100Y926000D01*
Y927200D02*Y926000D01*
X196600Y927700D02*X196100Y927200D01*
X198100Y927700D02*X196600D01*
X198100Y929500D02*Y925500D01*
X198600Y929500D02*X196600D01*
X196100Y929000D01*
Y928200D01*
X196600Y927700D02*X196100Y928200D01*
X194900Y929500D02*X192900D01*
X192400Y929000D01*
Y928000D01*
X192900Y927500D02*X192400Y928000D01*
X194400Y927500D02*X192900D01*
X194400Y929500D02*Y925500D01*
X193600Y927500D02*X192400Y925500D01*
X191200Y928500D02*Y925500D01*
Y928500D02*X190500Y929500D01*
X189400D01*
X188700Y928500D01*
Y925500D01*
X191200Y927500D02*X188700D01*
X186800Y925500D02*X185500D01*
X187500Y926200D02*X186800Y925500D01*
X187500Y928800D02*Y926200D01*
Y928800D02*X186800Y929500D01*
X185500D01*
X184300D02*Y925500D01*
Y927500D02*X182300Y929500D01*
X184300Y927500D02*X182300Y925500D01*
X179300Y927700D02*X177800D01*
X179300Y925500D02*X177300D01*
X179300Y929500D02*Y925500D01*
Y929500D02*X177300D01*
X175600D02*Y925500D01*
X174300Y929500D02*X173600Y928800D01*
Y926200D01*
X174300Y925500D02*X173600Y926200D01*
X176100Y925500D02*X174300D01*
X176100Y929500D02*X174300D01*
X170400D02*X169900Y929000D01*
X171900Y929500D02*X170400D01*
X172400Y929000D02*X171900Y929500D01*
X172400Y929000D02*Y926000D01*
X171900Y925500D01*
X170400D01*
X169900Y926000D01*
Y927000D02*Y926000D01*
X170400Y927500D02*X169900Y927000D01*
X171400Y927500D02*X170400D01*
X168700Y927700D02*X167200D01*
X168700Y925500D02*X166700D01*
X168700Y929500D02*Y925500D01*
Y929500D02*X166700D01*
X164800Y925500D02*X163500D01*
X165500Y926200D02*X164800Y925500D01*
X165500Y928800D02*Y926200D01*
Y928800D02*X164800Y929500D01*
X163500D01*
X162300Y928500D02*Y925500D01*
Y928500D02*X161600Y929500D01*
X160500D01*
X159800Y928500D01*
Y925500D01*
X162300Y927500D02*X159800D01*
X158600Y929500D02*X156600D01*
X156100Y929000D01*
Y928000D01*
X156600Y927500D02*X156100Y928000D01*
X158100Y927500D02*X156600D01*
X158100Y929500D02*Y925500D01*
X157300Y927500D02*X156100Y925500D01*
X154400Y929500D02*Y925500D01*
X153100Y929500D02*X152400Y928800D01*
Y926200D01*
X153100Y925500D02*X152400Y926200D01*
X154900Y925500D02*X153100D01*
X154900Y929500D02*X153100D01*
X205500Y914700D02*X204000D01*
X205500Y912500D02*X203500D01*
X205500Y916500D02*Y912500D01*
Y916500D02*X203500D01*
X202300Y915500D02*Y912500D01*
Y915500D02*X201600Y916500D01*
X200500D01*
X199800Y915500D01*
Y912500D01*
X202300Y914500D02*X199800D01*
X198600Y916500D02*X196600D01*
X197600D02*Y912500D01*
X195400Y916000D02*Y913000D01*
Y916000D02*X194900Y916500D01*
X193900D01*
X193400Y916000D01*
Y913000D01*
X193900Y912500D02*X193400Y913000D01*
X194900Y912500D02*X193900D01*
X195400Y913000D02*X194900Y912500D01*
X192200Y916500D02*Y912500D01*
Y916500D02*X189700Y912500D01*
Y916500D02*Y912500D01*
X186200Y916500D02*Y912500D01*
X186700Y916500D02*X184700D01*
X184200Y916000D01*
Y915000D01*
X184700Y914500D02*X184200Y915000D01*
X186200Y914500D02*X184700D01*
X183000Y914700D02*X181500D01*
X183000Y912500D02*X181000D01*
X183000Y916500D02*Y912500D01*
Y916500D02*X181000D01*
X179800Y915500D02*Y912500D01*
Y915500D02*X179100Y916500D01*
X178000D01*
X177300Y915500D01*
Y912500D01*
X179800Y914500D02*X177300D01*
X176100Y912500D02*X174100D01*
X173600Y913000D01*
Y914200D02*Y913000D01*
X174100Y914700D02*X173600Y914200D01*
X175600Y914700D02*X174100D01*
X175600Y916500D02*Y912500D01*
X176100Y916500D02*X174100D01*
X173600Y916000D01*
Y915200D01*
X174100Y914700D02*X173600Y915200D01*
X172400Y916000D02*Y913000D01*
Y916000D02*X171900Y916500D01*
X170900D01*
X170400Y916000D01*
Y913000D01*
X170900Y912500D02*X170400Y913000D01*
X171900Y912500D02*X170900D01*
X172400Y913000D02*X171900Y912500D01*
X168700Y916500D02*Y912500D01*
X167400Y916500D02*X166700Y915800D01*
Y913200D01*
X167400Y912500D02*X166700Y913200D01*
X169200Y912500D02*X167400D01*
X169200Y916500D02*X167400D01*
X165500D02*X164500Y914500D01*
X163500Y916500D01*
X164500Y914500D02*Y912500D01*
X160500Y916500D02*Y912500D01*
X158500D01*
X157300Y915500D02*Y912500D01*
Y915500D02*X156600Y916500D01*
X155500D01*
X154800Y915500D01*
Y912500D01*
X157300Y914500D02*X154800D01*
X153600Y912500D02*X151600D01*
X151100Y913000D01*
Y914200D02*Y913000D01*
X151600Y914700D02*X151100Y914200D01*
X153100Y914700D02*X151600D01*
X153100Y916500D02*Y912500D01*
X153600Y916500D02*X151600D01*
X151100Y916000D01*
Y915200D01*
X151600Y914700D02*X151100Y915200D01*
X178500Y881000D02*Y879500D01*
X178000Y879000D01*
X177500D01*
X177000Y879500D01*
Y881000D02*Y879500D01*
X176500Y879000D01*
X176000D01*
X175500Y879500D01*
Y881000D02*Y879500D01*
X174300Y883000D02*Y879000D01*
Y880500D02*X173800Y881000D01*
X172800D01*
X172300Y880500D01*
Y879000D01*
X171100Y882000D02*Y881900D01*
Y880500D02*Y879000D01*
X169600Y883000D02*Y879500D01*
X169100Y879000D01*
X170100Y881500D02*X169100D01*
X167600Y879000D02*X166100D01*
X168100Y879500D02*X167600Y879000D01*
X168100Y880500D02*Y879500D01*
Y880500D02*X167600Y881000D01*
X166600D01*
X166100Y880500D01*
X168100Y880000D02*X166100D01*
Y880500D01*
X181500Y841000D02*Y839500D01*
X181000Y839000D01*
X179500Y841000D02*Y838000D01*
X180000Y837500D02*X179500Y838000D01*
X181000Y837500D02*X180000D01*
X181500Y838000D02*X181000Y837500D01*
Y839000D02*X180000D01*
X179500Y839500D01*
X177800Y839000D02*X176300D01*
X178300Y839500D02*X177800Y839000D01*
X178300Y840500D02*Y839500D01*
Y840500D02*X177800Y841000D01*
X176800D01*
X176300Y840500D01*
X178300Y840000D02*X176300D01*
Y840500D01*
X175100Y843000D02*Y839500D01*
X174600Y839000D01*
X173600Y843000D02*Y839500D01*
X173100Y839000D01*
X172100Y840500D02*Y839500D01*
Y840500D02*X171600Y841000D01*
X170600D01*
X170100Y840500D01*
Y839500D01*
X170600Y839000D02*X170100Y839500D01*
X171600Y839000D02*X170600D01*
X172100Y839500D02*X171600Y839000D01*
X168900Y841000D02*Y839500D01*
X168400Y839000D01*
X167900D01*
X167400Y839500D01*
Y841000D02*Y839500D01*
X166900Y839000D01*
X166400D01*
X165900Y839500D01*
Y841000D02*Y839500D01*
X176000Y872500D02*Y868500D01*
Y869000D02*X175500Y868500D01*
X174500D01*
X174000Y869000D01*
Y870000D02*Y869000D01*
X174500Y870500D02*X174000Y870000D01*
X175500Y870500D02*X174500D01*
X176000Y870000D02*X175500Y870500D01*
X172800Y872500D02*Y869000D01*
X172300Y868500D01*
X171300Y870500D02*Y869000D01*
X170800Y868500D01*
X169800D01*
X169300Y869000D01*
Y870500D02*Y869000D01*
X167600Y868500D02*X166100D01*
X168100Y869000D02*X167600Y868500D01*
X168100Y870000D02*Y869000D01*
Y870000D02*X167600Y870500D01*
X166600D01*
X166100Y870000D01*
X168100Y869500D02*X166100D01*
Y870000D01*
X179500Y852000D02*X179000Y851500D01*
X180500Y852000D02*X179500D01*
X181000Y851500D02*X180500Y852000D01*
X181000Y851500D02*Y850500D01*
X180500Y850000D01*
X179500D01*
X179000Y850500D01*
X181000Y849000D02*X180500Y848500D01*
X179500D01*
X179000Y849000D01*
Y852000D02*Y849000D01*
X177300Y851500D02*Y850000D01*
Y851500D02*X176800Y852000D01*
X175800D01*
X177800D02*X177300Y851500D01*
X174100Y850000D02*X172600D01*
X174600Y850500D02*X174100Y850000D01*
X174600Y851500D02*Y850500D01*
Y851500D02*X174100Y852000D01*
X173100D01*
X172600Y851500D01*
X174600Y851000D02*X172600D01*
Y851500D01*
X170900Y850000D02*X169400D01*
X171400Y850500D02*X170900Y850000D01*
X171400Y851500D02*Y850500D01*
Y851500D02*X170900Y852000D01*
X169900D01*
X169400Y851500D01*
X171400Y851000D02*X169400D01*
Y851500D01*
X167700D02*Y850000D01*
Y851500D02*X167200Y852000D01*
X166700D01*
X166200Y851500D01*
Y850000D01*
X168200Y852000D02*X167700Y851500D01*
X243211Y890521D02*X244511D01*
X242511Y889821D02*X243211Y890521D01*
X242511Y887221D02*Y889821D01*
Y887221D02*X243211Y886521D01*
X244511D01*
X245711Y887321D02*X246511Y886521D01*
Y890521D01*
X245711D02*X247211D01*
X248411Y890021D02*X248911Y890521D01*
X248411Y887021D02*Y890021D01*
Y887021D02*X248911Y886521D01*
X249911D01*
X250411Y887021D01*
Y890021D01*
X249911Y890521D02*X250411Y890021D01*
X248911Y890521D02*X249911D01*
X248411Y889521D02*X250411Y887521D01*
X252111Y890521D02*X254111Y886521D01*
X251611D02*X254111D01*
X241777Y919021D02*X243077D01*
X241077Y918321D02*X241777Y919021D01*
X241077Y915721D02*Y918321D01*
Y915721D02*X241777Y915021D01*
X243077D01*
X244277Y915821D02*X245077Y915021D01*
Y919021D01*
X244277D02*X245777D01*
X246977Y918521D02*X247477Y919021D01*
X246977Y915521D02*Y918521D01*
Y915521D02*X247477Y915021D01*
X248477D01*
X248977Y915521D01*
Y918521D01*
X248477Y919021D02*X248977Y918521D01*
X247477Y919021D02*X248477D01*
X246977Y918021D02*X248977Y916021D01*
X250177Y917521D02*X252177Y915021D01*
X250177Y917521D02*X252677D01*
X252177Y915021D02*Y919021D01*
X164000Y612000D02*Y609000D01*
Y612000D02*X163300Y613000D01*
X162200D01*
X161500Y612000D01*
Y609000D01*
X164000Y611000D02*X161500D01*
X160300Y612200D02*X159500Y613000D01*
Y609000D01*
X160300D02*X158800D01*
X162000Y603000D02*X161500Y602500D01*
X163500Y603000D02*X162000D01*
X164000Y602500D02*X163500Y603000D01*
X164000Y602500D02*Y601500D01*
X163500Y601000D01*
X162000D01*
X161500Y600500D01*
Y599500D01*
X162000Y599000D02*X161500Y599500D01*
X163500Y599000D02*X162000D01*
X164000Y599500D02*X163500Y599000D01*
X160300Y603000D02*X159300Y601000D01*
X158300Y603000D01*
X159300Y601000D02*Y599000D01*
X157100Y603000D02*Y599000D01*
Y603000D02*X154600Y599000D01*
Y603000D02*Y599000D01*
X152700D02*X151400D01*
X153400Y599700D02*X152700Y599000D01*
X153400Y602300D02*Y599700D01*
Y602300D02*X152700Y603000D01*
X151400D01*
X150200D02*Y599000D01*
Y603000D02*X147700Y599000D01*
Y603000D02*Y599000D01*
X164000Y622000D02*Y619000D01*
Y622000D02*X163300Y623000D01*
X162200D01*
X161500Y622000D01*
Y619000D01*
X164000Y621000D02*X161500D01*
X160300Y622500D02*X159800Y623000D01*
X158800D01*
X158300Y622500D01*
X158800Y619000D02*X158300Y619500D01*
X159800Y619000D02*X158800D01*
X160300Y619500D02*X159800Y619000D01*
Y621200D02*X158800D01*
X158300Y622500D02*Y621700D01*
Y620700D02*Y619500D01*
Y620700D02*X158800Y621200D01*
X158300Y621700D02*X158800Y621200D01*
X162000Y593000D02*X161500Y592500D01*
X163500Y593000D02*X162000D01*
X164000Y592500D02*X163500Y593000D01*
X164000Y592500D02*Y589500D01*
X163500Y589000D01*
X162000D01*
X161500Y589500D01*
Y590500D02*Y589500D01*
X162000Y591000D02*X161500Y590500D01*
X163000Y591000D02*X162000D01*
X160300Y593000D02*Y589000D01*
Y593000D02*X157800Y589000D01*
Y593000D02*Y589000D01*
X156100Y593000D02*Y589000D01*
X154800Y593000D02*X154100Y592300D01*
Y589700D01*
X154800Y589000D02*X154100Y589700D01*
X156600Y589000D02*X154800D01*
X156600Y593000D02*X154800D01*
X152400D02*Y589000D01*
X151100Y593000D02*X150400Y592300D01*
Y589700D01*
X151100Y589000D02*X150400Y589700D01*
X152900Y589000D02*X151100D01*
X152900Y593000D02*X151100D01*
X202500D02*X202000Y592500D01*
X204000Y593000D02*X202500D01*
X204500Y592500D02*X204000Y593000D01*
X204500Y592500D02*Y589500D01*
X204000Y589000D01*
X202500D01*
X202000Y589500D01*
Y590500D02*Y589500D01*
X202500Y591000D02*X202000Y590500D01*
X203500Y591000D02*X202500D01*
X200800Y593000D02*Y589000D01*
Y593000D02*X198300Y589000D01*
Y593000D02*Y589000D01*
X196600Y593000D02*Y589000D01*
X195300Y593000D02*X194600Y592300D01*
Y589700D01*
X195300Y589000D02*X194600Y589700D01*
X197100Y589000D02*X195300D01*
X197100Y593000D02*X195300D01*
X192900D02*Y589000D01*
X191600Y593000D02*X190900Y592300D01*
Y589700D01*
X191600Y589000D02*X190900Y589700D01*
X193400Y589000D02*X191600D01*
X193400Y593000D02*X191600D01*
X201500Y572500D02*X200500D01*
X201000D02*Y568500D01*
X201500D02*X200500D01*
X198800Y570000D02*Y568500D01*
Y570000D02*X198300Y570500D01*
X197800D01*
X197300Y570000D01*
Y568500D01*
X199300Y570500D02*X198800Y570000D01*
X195600Y572500D02*Y569000D01*
X195100Y568500D01*
X196100Y571000D02*X195100D01*
X193600Y568500D02*X192100D01*
X194100Y569000D02*X193600Y568500D01*
X194100Y570000D02*Y569000D01*
Y570000D02*X193600Y570500D01*
X192600D01*
X192100Y570000D01*
X194100Y569500D02*X192100D01*
Y570000D01*
X190400D02*Y568500D01*
Y570000D02*X189900Y570500D01*
X189400D01*
X188900Y570000D01*
Y568500D01*
X190900Y570500D02*X190400Y570000D01*
X187200Y568500D02*X185700D01*
X185200Y569000D01*
X185700Y569500D02*X185200Y569000D01*
X187200Y569500D02*X185700D01*
X187700Y570000D02*X187200Y569500D01*
X187700Y570000D02*X187200Y570500D01*
X185700D01*
X185200Y570000D01*
X187700Y569000D02*X187200Y568500D01*
X183500D02*X182000D01*
X184000Y569000D02*X183500Y568500D01*
X184000Y570000D02*Y569000D01*
Y570000D02*X183500Y570500D01*
X182500D01*
X182000Y570000D01*
X184000Y569500D02*X182000D01*
Y570000D01*
X179000Y571500D02*Y571400D01*
Y570000D02*Y568500D01*
X177500Y572500D02*Y569000D01*
X177000Y568500D01*
X178000Y571000D02*X177000D01*
X175500Y568500D02*X174000D01*
X176000Y569000D02*X175500Y568500D01*
X176000Y570000D02*Y569000D01*
Y570000D02*X175500Y570500D01*
X174500D01*
X174000Y570000D01*
X176000Y569500D02*X174000D01*
Y570000D01*
X172300D02*Y568500D01*
Y570000D02*X171800Y570500D01*
X170800D01*
X172800D02*X172300Y570000D01*
X168100Y570500D02*X167600Y570000D01*
X169100Y570500D02*X168100D01*
X169600Y570000D02*X169100Y570500D01*
X169600Y570000D02*Y569000D01*
X169100Y568500D01*
X167600Y570500D02*Y569000D01*
X167100Y568500D01*
X169100D02*X168100D01*
X167600Y569000D01*
X165400Y572500D02*Y569000D01*
X164900Y568500D01*
X165900Y571000D02*X164900D01*
X163900Y571500D02*Y571400D01*
Y570000D02*Y568500D01*
X162900Y570000D02*Y569000D01*
Y570000D02*X162400Y570500D01*
X161400D01*
X160900Y570000D01*
Y569000D01*
X161400Y568500D02*X160900Y569000D01*
X162400Y568500D02*X161400D01*
X162900Y569000D02*X162400Y568500D01*
X159200Y570000D02*Y568500D01*
Y570000D02*X158700Y570500D01*
X158200D01*
X157700Y570000D01*
Y568500D01*
X159700Y570500D02*X159200Y570000D01*
X154700Y571500D02*Y571400D01*
Y570000D02*Y568500D01*
X153200D02*X151700D01*
X151200Y569000D01*
X151700Y569500D02*X151200Y569000D01*
X153200Y569500D02*X151700D01*
X153700Y570000D02*X153200Y569500D01*
X153700Y570000D02*X153200Y570500D01*
X151700D01*
X151200Y570000D01*
X153700Y569000D02*X153200Y568500D01*
X201000Y564500D02*Y564400D01*
Y563000D02*Y561500D01*
X199500Y563000D02*Y561500D01*
Y563000D02*X199000Y563500D01*
X198500D01*
X198000Y563000D01*
Y561500D01*
X200000Y563500D02*X199500Y563000D01*
X194800Y565500D02*Y561500D01*
X195300D02*X194800Y562000D01*
X196300Y561500D02*X195300D01*
X196800Y562000D02*X196300Y561500D01*
X196800Y563000D02*Y562000D01*
Y563000D02*X196300Y563500D01*
X195300D01*
X194800Y563000D01*
X193600Y564500D02*Y564400D01*
Y563000D02*Y561500D01*
X192100D02*X190600D01*
X190100Y562000D01*
X190600Y562500D02*X190100Y562000D01*
X192100Y562500D02*X190600D01*
X192600Y563000D02*X192100Y562500D01*
X192600Y563000D02*X192100Y563500D01*
X190600D01*
X190100Y563000D01*
X192600Y562000D02*X192100Y561500D01*
X188400Y565500D02*Y562000D01*
X187900Y561500D01*
X188900Y564000D02*X187900D01*
X186900Y564500D02*Y564400D01*
Y563000D02*Y561500D01*
X185400Y563000D02*Y561500D01*
Y563000D02*X184900Y563500D01*
X184400D01*
X183900Y563000D01*
Y561500D01*
X185900Y563500D02*X185400Y563000D01*
X181200Y563500D02*X180700Y563000D01*
X182200Y563500D02*X181200D01*
X182700Y563000D02*X182200Y563500D01*
X182700Y563000D02*Y562000D01*
X182200Y561500D01*
X181200D01*
X180700Y562000D01*
X182700Y560500D02*X182200Y560000D01*
X181200D01*
X180700Y560500D01*
Y563500D02*Y560500D01*
X179500Y563500D02*Y562000D01*
X179000Y561500D01*
X178000D01*
X177500Y562000D01*
Y563500D02*Y562000D01*
X176300Y564500D02*Y564400D01*
Y563000D02*Y561500D01*
X174800D02*X173300D01*
X172800Y562000D01*
X173300Y562500D02*X172800Y562000D01*
X174800Y562500D02*X173300D01*
X175300Y563000D02*X174800Y562500D01*
X175300Y563000D02*X174800Y563500D01*
X173300D01*
X172800Y563000D01*
X175300Y562000D02*X174800Y561500D01*
X171600Y565500D02*Y561500D01*
Y563000D02*X171100Y563500D01*
X170100D01*
X169600Y563000D01*
Y561500D01*
X166900Y563500D02*X166400Y563000D01*
X167900Y563500D02*X166900D01*
X168400Y563000D02*X167900Y563500D01*
X168400Y563000D02*Y562000D01*
X167900Y561500D01*
X166400Y563500D02*Y562000D01*
X165900Y561500D01*
X167900D02*X166900D01*
X166400Y562000D01*
X164700Y565500D02*Y561500D01*
Y562000D02*X164200Y561500D01*
X163200D01*
X162700Y562000D01*
Y563000D02*Y562000D01*
X163200Y563500D02*X162700Y563000D01*
X164200Y563500D02*X163200D01*
X164700Y563000D02*X164200Y563500D01*
X161500Y565500D02*Y562000D01*
X161000Y561500D01*
X159500D02*X158000D01*
X160000Y562000D02*X159500Y561500D01*
X160000Y563000D02*Y562000D01*
Y563000D02*X159500Y563500D01*
X158500D01*
X158000Y563000D01*
X160000Y562500D02*X158000D01*
Y563000D01*
X200500Y558500D02*Y555000D01*
Y558500D02*X200000Y559000D01*
X199500D01*
X201000Y557000D02*X200000D01*
X198000Y556500D02*Y555000D01*
Y556500D02*X197500Y557000D01*
X196500D01*
X198500D02*X198000Y556500D01*
X195300D02*Y555500D01*
Y556500D02*X194800Y557000D01*
X193800D01*
X193300Y556500D01*
Y555500D01*
X193800Y555000D02*X193300Y555500D01*
X194800Y555000D02*X193800D01*
X195300Y555500D02*X194800Y555000D01*
X191600Y556500D02*Y555000D01*
Y556500D02*X191100Y557000D01*
X190600D01*
X190100Y556500D01*
Y555000D01*
Y556500D02*X189600Y557000D01*
X189100D01*
X188600Y556500D01*
Y555000D01*
X192100Y557000D02*X191600Y556500D01*
X183600Y559000D02*Y555000D01*
X184100D02*X183600Y555500D01*
X185100Y555000D02*X184100D01*
X185600Y555500D02*X185100Y555000D01*
X185600Y556500D02*Y555500D01*
Y556500D02*X185100Y557000D01*
X184100D01*
X183600Y556500D01*
X182400Y557000D02*Y555500D01*
X181900Y555000D01*
X180900D01*
X180400Y555500D01*
Y557000D02*Y555500D01*
X178700Y556500D02*Y555000D01*
Y556500D02*X178200Y557000D01*
X177700D01*
X177200Y556500D01*
Y555000D01*
Y556500D02*X176700Y557000D01*
X176200D01*
X175700Y556500D01*
Y555000D01*
X179200Y557000D02*X178700Y556500D01*
X174500Y559000D02*Y555000D01*
Y555500D02*X174000Y555000D01*
X173000D01*
X172500Y555500D01*
Y556500D02*Y555500D01*
X173000Y557000D02*X172500Y556500D01*
X174000Y557000D02*X173000D01*
X174500Y556500D02*X174000Y557000D01*
X168000D02*X167500Y556500D01*
X169000Y557000D02*X168000D01*
X169500Y556500D02*X169000Y557000D01*
X169500Y556500D02*Y555500D01*
X169000Y555000D01*
X168000D01*
X167500Y555500D01*
X169500Y554000D02*X169000Y553500D01*
X168000D01*
X167500Y554000D01*
Y557000D02*Y554000D01*
X166300Y557000D02*Y555500D01*
X165800Y555000D01*
X164800D01*
X164300Y555500D01*
Y557000D02*Y555500D01*
X162600Y555000D02*X161100D01*
X163100Y555500D02*X162600Y555000D01*
X163100Y556500D02*Y555500D01*
Y556500D02*X162600Y557000D01*
X161600D01*
X161100Y556500D01*
X163100Y556000D02*X161100D01*
Y556500D01*
X159400Y555000D02*X157900D01*
X157400Y555500D01*
X157900Y556000D02*X157400Y555500D01*
X159400Y556000D02*X157900D01*
X159900Y556500D02*X159400Y556000D01*
X159900Y556500D02*X159400Y557000D01*
X157900D01*
X157400Y556500D01*
X159900Y555500D02*X159400Y555000D01*
X155700D02*X154200D01*
X153700Y555500D01*
X154200Y556000D02*X153700Y555500D01*
X155700Y556000D02*X154200D01*
X156200Y556500D02*X155700Y556000D01*
X156200Y556500D02*X155700Y557000D01*
X154200D01*
X153700Y556500D01*
X156200Y555500D02*X155700Y555000D01*
X200500Y550500D02*Y549000D01*
X200000Y548500D01*
X199500D01*
X199000Y549000D01*
Y550500D02*Y549000D01*
X198500Y548500D01*
X198000D01*
X197500Y549000D01*
Y550500D02*Y549000D01*
X196300Y550000D02*Y549000D01*
Y550000D02*X195800Y550500D01*
X194800D01*
X194300Y550000D01*
Y549000D01*
X194800Y548500D02*X194300Y549000D01*
X195800Y548500D02*X194800D01*
X196300Y549000D02*X195800Y548500D01*
X192600Y550000D02*Y548500D01*
Y550000D02*X192100Y550500D01*
X191100D01*
X193100D02*X192600Y550000D01*
X189900Y552500D02*Y548500D01*
Y550000D02*X188400Y548500D01*
X189900Y550000D02*X188900Y551000D01*
X162000Y733000D02*X161500Y732500D01*
X163500Y733000D02*X162000D01*
X164000Y732500D02*X163500Y733000D01*
X164000Y732500D02*Y729500D01*
X163500Y729000D01*
X162000D01*
X161500Y729500D01*
Y730500D02*Y729500D01*
X162000Y731000D02*X161500Y730500D01*
X163000Y731000D02*X162000D01*
X160300Y733000D02*Y729000D01*
Y733000D02*X157800Y729000D01*
Y733000D02*Y729000D01*
X156100Y733000D02*Y729000D01*
X154800Y733000D02*X154100Y732300D01*
Y729700D01*
X154800Y729000D02*X154100Y729700D01*
X156600Y729000D02*X154800D01*
X156600Y733000D02*X154800D01*
X152400D02*Y729000D01*
X151100Y733000D02*X150400Y732300D01*
Y729700D01*
X151100Y729000D02*X150400Y729700D01*
X152900Y729000D02*X151100D01*
X152900Y733000D02*X151100D01*
X164000Y723000D02*X162000D01*
X161500Y722500D01*
Y721500D01*
X162000Y721000D02*X161500Y721500D01*
X163500Y721000D02*X162000D01*
X163500Y723000D02*Y719000D01*
X162700Y721000D02*X161500Y719000D01*
X160300Y719500D02*X157300Y722500D01*
X156100Y723000D02*Y721000D01*
X155600Y719000D01*
X154600Y721000D01*
X153600Y719000D01*
X153100Y721000D01*
Y723000D01*
X164000Y709500D02*X161000Y712500D01*
X159800Y713000D02*X157800D01*
X157300Y712500D01*
Y711500D01*
X157800Y711000D02*X157300Y711500D01*
X159300Y711000D02*X157800D01*
X159300Y713000D02*Y709000D01*
X158500Y711000D02*X157300Y709000D01*
X156100Y711200D02*X154600D01*
X156100Y709000D02*X154100D01*
X156100Y713000D02*Y709000D01*
Y713000D02*X154100D01*
X150900D02*X150400Y712500D01*
X152400Y713000D02*X150900D01*
X152900Y712500D02*X152400Y713000D01*
X152900Y712500D02*Y711500D01*
X152400Y711000D01*
X150900D01*
X150400Y710500D01*
Y709500D01*
X150900Y709000D02*X150400Y709500D01*
X152400Y709000D02*X150900D01*
X152900Y709500D02*X152400Y709000D01*
X149200Y711200D02*X147700D01*
X149200Y709000D02*X147200D01*
X149200Y713000D02*Y709000D01*
Y713000D02*X147200D01*
X146000D02*X144000D01*
X145000D02*Y709000D01*
M02*
